<?xml version="1.0" encoding="utf-8"?>
<!-- Generator: Adobe Illustrator 18.0.0, SVG Export Plug-In . SVG Version: 6.00 Build 0)  -->
<!DOCTYPE svg PUBLIC "-//W3C//DTD SVG 1.1//EN" "http://www.w3.org/Graphics/SVG/1.1/DTD/svg11.dtd">
<svg version="1.1" id="abc" xmlns="http://www.w3.org/2000/svg" xmlns:xlink="http://www.w3.org/1999/xlink" x="0px" y="0px"
	 width="255px" height="255px" viewBox="0 0 255 255" enable-background="new 0 0 255 255" xml:space="preserve">
<path fill="#00457C" d="M238.8,145.8h-43.4c-1.5,0-2.6,1.2-2.6,2.6v0.2c0,1.5,1.2,2.6,2.6,2.6h43.4c1.5,0,2.6-1.2,2.6-2.6v-0.2
	C241.4,147,240.2,145.8,238.8,145.8z"/>
<path fill="#00457C" d="M179,148.4c0-1.5-1.2-2.6-2.6-2.6h-4.8c0.2,1.7,0.4,3.5,0.4,5.5h4.4c1.5,0,2.6-1.2,2.6-2.6V148.4z"/>
<path fill="#00457C" d="M134.6,136c0.3,0.1,0.6,0.2,1,0.2C135.3,136.1,135,136.1,134.6,136z"/>
<path fill="#00457C" d="M167.6,134.8c0,0,0,0.1,0.1,0.1c0.2-0.4,0.4-0.8,0.4-1.3v-0.2c0-1.5-1.2-2.6-2.6-2.6h-1.7
	C165.2,132,166.5,133.3,167.6,134.8z"/>
<path fill="#00457C" d="M185.7,136.2h7.1c1.5,0,2.6-1.2,2.6-2.6v-0.2c0-1.5-1.2-2.6-2.6-2.6h-7.1c-1.5,0-2.6,1.2-2.6,2.6v0.2
	C183.1,135,184.3,136.2,185.7,136.2z"/>
<path fill="#00457C" d="M191.2,120.4h21.5c1.5,0,2.6-1.2,2.6-2.6v-0.2c0-1.5-1.2-2.6-2.6-2.6h-21.5c-1.5,0-2.6,1.2-2.6,2.6v0.2
	C188.6,119.3,189.8,120.4,191.2,120.4z"/>
<line fill="none" stroke="#00457C" stroke-width="0" stroke-linecap="round" stroke-linejoin="round" x1="198" y1="179.3" x2="198" y2="179.3"/>
<path fill="#00457C" d="M195.4,176.6h-4.5v-4.5c0-1.5-1.2-2.6-2.6-2.6H188c-1.5,0-2.6,1.2-2.6,2.6v4.5h-4.5c-1.5,0-2.6,1.2-2.6,2.6
	v0.2c0,1.5,1.2,2.6,2.6,2.6h4.5v4.5c0,1.5,1.2,2.6,2.6,2.6h0.2c1.5,0,2.6-1.2,2.6-2.6v-4.5h4.5c1.5,0,2.6-1.2,2.6-2.6v-0.1v-0.1
	C198,177.8,196.8,176.6,195.4,176.6z"/>
<path fill="#00457C" d="M137.5,196.1H99.3c-4.1,0-7.5-1-10-2.9c-3.4-2.6-4.2-5.6-4.2-7.7V76.1c0-3.5,1.6-6.3,4.6-8.2
	c2.7-1.7,5.9-2.5,9.6-2.5h35.3c24.1,0,36.9,11.5,36.9,33.1c0,12.5-3.9,21.5-11.5,26.8c4,2.1,7.3,4.9,9.7,8.1c3.3,4.5,5,11.1,5,19.6
	v3.6c0,13.5-3.4,23.6-10.2,29.9C157.7,192.8,148.6,196.1,137.5,196.1z M99.3,70.3c-2.7,0-5.1,0.6-6.9,1.8c-1.6,1-2.3,2.2-2.3,4
	v109.4c0,0.9,0.2,2.2,2.2,3.7c1.7,1.3,4,1.9,7,1.9h38.2c9.8,0,17.7-2.8,23.5-8.2c5.7-5.4,8.6-14.2,8.6-26.3V153
	c0-7.4-1.3-13.1-4-16.7c-2.7-3.7-6.7-6.5-12.1-8.5c-1-0.4-1.6-1.3-1.6-2.3s0.6-2,1.5-2.4c8.8-3.8,13.1-11.9,13.1-24.7
	c0-18.9-10.4-28.1-31.9-28.1H99.3z M131.5,172.7h-17.2c-1.4,0-2.5-1.1-2.5-2.5v-34.4c0-1.4,1.1-2.5,2.5-2.5h17.2
	c7.4,0,16.3,3.2,16.3,18.3v2.8C147.7,169.5,138.9,172.7,131.5,172.7z M116.8,167.7h14.7c7.8,0,11.3-4.1,11.3-13.3v-2.8
	c0-9.2-3.5-13.3-11.3-13.3h-14.7V167.7z M132.3,117.6h-18.1c-1.4,0-2.5-1.1-2.5-2.5V91.2c0-1.4,1.1-2.5,2.5-2.5h18.1
	c3.9,0,7.1,1.6,9.3,4.7c2,2.8,3,6.2,3,9.9c0,3.7-1,7-3.1,9.8C139.4,116,136.2,117.6,132.3,117.6z M116.8,112.6h15.6
	c2.3,0,4-0.8,5.2-2.5c1.4-1.9,2.1-4.2,2.1-6.9c0-2.7-0.7-5-2.1-7c-1.3-1.7-2.9-2.6-5.2-2.6h-15.6V112.6z"/>
</svg>
