<?xml version="1.0" encoding="utf-8"?>
<!-- Generator: Adobe Illustrator 18.0.0, SVG Export Plug-In . SVG Version: 6.00 Build 0)  -->
<!DOCTYPE svg PUBLIC "-//W3C//DTD SVG 1.1//EN" "http://www.w3.org/Graphics/SVG/1.1/DTD/svg11.dtd">
<svg version="1.1" id="abc" xmlns="http://www.w3.org/2000/svg" xmlns:xlink="http://www.w3.org/1999/xlink" x="0px" y="0px"
	 width="255px" height="255px" viewBox="0 0 255 255" enable-background="new 0 0 255 255" xml:space="preserve">
<path fill="#00457C" d="M23.4,107.3h4.3c1.5,0,2.6-1.2,2.6-2.6v-0.2c0-1.5-1.2-2.6-2.6-2.6h-4.3c-1.5,0-2.6,1.2-2.6,2.6v0.2
	C20.7,106.1,21.9,107.3,23.4,107.3z"/>
<path fill="#00457C" d="M50.8,107.3h36.3c0-1.9,0.1-3.7,0.3-5.5H50.8c-1.5,0-2.6,1.2-2.6,2.6v0.2C48.2,106.1,49.4,107.3,50.8,107.3z
	"/>
<path fill="#00457C" d="M58.4,92.2h6.4c1.5,0,2.6-1.2,2.6-2.6v-0.2c0-1.5-1.2-2.6-2.6-2.6h-6.4c-1.5,0-2.6,1.2-2.6,2.6v0.2
	C55.7,91,56.9,92.2,58.4,92.2z"/>
<path fill="#00457C" d="M79.1,121.7c1.5,0,2.6-1.2,2.6-2.6v-0.2c0-1.5-1.2-2.6-2.6-2.6H70c-1.5,0-2.6,1.2-2.6,2.6v0.2
	c0,1.5,1.2,2.6,2.6,2.6H79.1z"/>
<path fill="#00457C" d="M128.4,197.1c-12.8,0-23.4-3.5-31.5-10.4c-8.2-7-12.3-18-12.3-32.7v-45.6c0-14.7,4.1-25.7,12.3-32.7
	c8.1-6.9,18.6-10.4,31.5-10.4c13.1,0,24.1,3.2,32.5,9.6c8.7,6.5,13.1,15.7,13.1,27.1c0,5.8-1.3,9.7-4,12c-2.6,2.2-6.5,3.3-12,3.3
	c-12.6,0-15.6-5.7-15.9-10.4c-0.3-9.1-4.3-13.1-12.8-13.1c-8.9,0-13,4.7-13,14.7V154c0,10,4.2,14.7,13.2,14.7c2.8,0,5.1-0.4,6.9-1.3
	c1.6-0.8,2.7-1.9,3.4-3.5c0.8-2,1.4-3.6,1.7-4.8c0.3-1.3,0.5-3.1,0.7-5.4c0.4-4.7,3.5-10.3,15.7-10.3c5.6,0,9.6,1.1,12.1,3.3
	c2.7,2.3,4,6.2,4,12c0,11.9-4.4,21.4-13.1,28.3C152.5,193.7,141.5,197.1,128.4,197.1z M128.4,70.3c-11.6,0-21.1,3.1-28.2,9.2
	c-7,6-10.6,15.7-10.6,28.9V154c0,13.2,3.6,22.9,10.6,28.9c7.1,6.1,16.6,9.2,28.2,9.2c12,0,21.9-3.1,29.5-9.1
	c7.5-6,11.2-13.9,11.2-24.4c0-4.1-0.8-6.9-2.2-8.2c-1.1-0.9-3.5-2.1-8.9-2.1c-10.3,0-10.6,4.2-10.8,5.8c-0.2,2.6-0.5,4.5-0.8,6
	c-0.3,1.6-1,3.4-2,5.7c-1.2,2.7-3.1,4.7-5.8,6c-2.5,1.2-5.5,1.8-9.1,1.8c-8.3,0-18.2-3.4-18.2-19.7v-45.6c0-16.3,9.8-19.7,18-19.7
	c11.3,0,17.4,6.2,17.8,17.9c0.1,1.5,0.4,5.7,10.9,5.7c4.1,0,7.1-0.7,8.7-2.1c1.5-1.3,2.2-4.1,2.2-8.2c0-9.9-3.6-17.5-11.1-23.1
	C150.3,73.2,140.4,70.3,128.4,70.3z"/>
<path fill="#00457C" d="M14.3,133.2L14.3,133.2c0-1.5-1.2-2.6-2.6-2.6s-2.6,1.2-2.6,2.6v0c0,1.5,1.2,2.6,2.6,2.6
	S14.3,134.7,14.3,133.2z"/>
</svg>
