<?xml version="1.0" encoding="utf-8"?>
<!-- Generator: Adobe Illustrator 18.0.0, SVG Export Plug-In . SVG Version: 6.00 Build 0)  -->
<!DOCTYPE svg PUBLIC "-//W3C//DTD SVG 1.1//EN" "http://www.w3.org/Graphics/SVG/1.1/DTD/svg11.dtd">
<svg version="1.1" id="abc" xmlns="http://www.w3.org/2000/svg" xmlns:xlink="http://www.w3.org/1999/xlink" x="0px" y="0px"
	 width="255px" height="255px" viewBox="0 0 255 255" enable-background="new 0 0 255 255" xml:space="preserve">
<path fill="#00457C" d="M128.2,196.1H97.7c-4,0-7.3-1-9.9-2.9c-3.5-2.6-4.3-5.6-4.3-7.7V75.9c0-2.1,0.7-5.1,4.3-7.7
	c2.6-1.9,5.9-2.9,9.9-2.9h30.4c13.4,0,24.3,3.5,32.4,10.4c8.2,7,12.4,18,12.4,32.7V153c0,14.7-4.2,25.7-12.4,32.7
	C152.5,192.6,141.6,196.1,128.2,196.1z M97.7,70.3c-2.9,0-5.2,0.6-6.9,1.9c-2,1.5-2.3,2.8-2.3,3.7v109.6c0,0.9,0.2,2.2,2.3,3.7
	c1.7,1.3,4.1,1.9,6.9,1.9h30.4c12.2,0,22-3.1,29.2-9.2c7.1-6,10.6-15.7,10.6-28.9v-44.5c0-13.2-3.6-22.9-10.6-28.9
	c-7.2-6.1-17-9.2-29.2-9.2H97.7z M128.2,172.7h-15.3c-1.4,0-2.5-1.1-2.5-2.5V91.2c0-1.4,1.1-2.5,2.5-2.5h15.3c8.2,0,18,3.4,18,19.7
	V153C146.2,169.2,136.4,172.7,128.2,172.7z M115.4,167.7h12.8c8.9,0,13-4.7,13-14.7v-44.5c0-10-4.1-14.7-13-14.7h-12.8V167.7z"/>
<circle fill="none" cx="110.1" cy="50.3" r="2.7"/>
<path fill="#00457C" d="M156,188.4c1.5,0,2.7-1.2,2.7-2.7c0-0.5-0.2-1-0.4-1.4c-2,1.6-4.1,3-6.3,4.2H156z"/>
<path fill="#00457C" d="M218.4,182.9h-18.5c-1.5,0-2.7,1.2-2.7,2.7s1.2,2.7,2.7,2.7h18.5c1.5,0,2.7-1.2,2.7-2.7
	S219.9,182.9,218.4,182.9z"/>
<path fill="#00457C" d="M176.6,188.4h6.9c1.5,0,2.7-1.2,2.7-2.7s-1.2-2.7-2.7-2.7h-6.9c-1.5,0-2.7,1.2-2.7,2.7
	S175.1,188.4,176.6,188.4z"/>
<path fill="#00457C" d="M206.1,201.4c0-1.5-1.2-2.7-2.7-2.7h-21.3c-1.5,0-2.7,1.2-2.7,2.7c0,1.5,1.2,2.7,2.7,2.7h21.3
	C204.8,204.2,206.1,203,206.1,201.4z"/>
<path fill="#00457C" d="M158.6,198.7c-1.5,0-2.7,1.2-2.7,2.7c0,1.5,1.2,2.7,2.7,2.7h2.3c1.5,0,2.7-1.2,2.7-2.7
	c0-1.5-1.2-2.7-2.7-2.7H158.6z"/>
<path fill="#00457C" d="M72.9,104.2V104c0-1.5-1.2-2.6-2.6-2.6h-4.5v-4.5c0-1.5-1.2-2.6-2.6-2.6h-0.2c-1.5,0-2.6,1.2-2.6,2.6v4.5
	h-4.5c-1.5,0-2.6,1.2-2.6,2.6v0.2c0,1.5,1.2,2.6,2.6,2.6h4.5v4.5c0,1.5,1.2,2.6,2.6,2.6h0.2c1.5,0,2.6-1.2,2.6-2.6v-4.5h4.5
	C71.7,106.9,72.9,105.7,72.9,104.2z"/>
<path fill="#00457C" d="M110.1,58.5c4.5,0,8.2-3.7,8.2-8.2c0-4.5-3.7-8.2-8.2-8.2c-4.5,0-8.2,3.7-8.2,8.2
	C101.8,54.8,105.5,58.5,110.1,58.5z M110.1,47.5c1.5,0,2.7,1.2,2.7,2.7c0,1.5-1.2,2.7-2.7,2.7c-1.5,0-2.7-1.2-2.7-2.7
	C107.3,48.8,108.5,47.5,110.1,47.5z"/>
</svg>
