<?xml version="1.0" encoding="utf-8"?>
<!-- Generator: Adobe Illustrator 18.0.0, SVG Export Plug-In . SVG Version: 6.00 Build 0)  -->
<!DOCTYPE svg PUBLIC "-//W3C//DTD SVG 1.1//EN" "http://www.w3.org/Graphics/SVG/1.1/DTD/svg11.dtd">
<svg version="1.1" id="abc" xmlns="http://www.w3.org/2000/svg" xmlns:xlink="http://www.w3.org/1999/xlink" x="0px" y="0px"
	 width="255px" height="255px" viewBox="0 0 255 255" enable-background="new 0 0 255 255" xml:space="preserve">
<path fill="#00457C" d="M163.4,196.1h-61.2c-3.7,0-6.9-0.9-9.6-2.5c-3-1.9-4.6-4.7-4.6-8.2V76.1c0-3.5,1.6-6.3,4.6-8.2
	c2.7-1.7,5.9-2.5,9.6-2.5h61.2c3.5,0,6.3,1.6,8.2,4.7c1.6,2.7,2.4,5.8,2.4,9.4c0,3.8-0.9,7.1-2.5,9.8c-1.9,3-4.7,4.6-8.1,4.6h-43.6
	v24.1h23.3c3.3,0,6.1,1.4,8,4.2c1.7,2.5,2.6,5.5,2.6,8.8c0,3.1-0.8,6-2.5,8.4c-1.8,2.8-4.6,4.2-8.1,4.2h-23.3v24.2h43.6
	c3.4,0,6.2,1.6,8.1,4.6c1.7,2.7,2.5,6,2.5,9.8c0,3.5-0.8,6.7-2.4,9.4C169.7,194.4,166.9,196.1,163.4,196.1z M102.1,70.3
	c-2.7,0-5.1,0.6-6.9,1.8c-1.6,1-2.3,2.2-2.3,4v109.2c0,1.8,0.7,3,2.3,4c1.9,1.2,4.2,1.8,6.9,1.8h61.2c1.8,0,3-0.7,3.9-2.2
	c1.1-1.9,1.7-4.2,1.7-6.8c0-2.8-0.6-5.2-1.8-7.1c-1-1.6-2.2-2.3-3.8-2.3h-46.1c-1.4,0-2.5-1.1-2.5-2.5v-29.2c0-1.4,1.1-2.5,2.5-2.5
	h25.8c1.8,0,3-0.6,3.9-2c1.1-1.7,1.6-3.5,1.6-5.7c0-2.4-0.6-4.3-1.7-6c-1-1.4-2.2-2-3.9-2h-25.8c-1.4,0-2.5-1.1-2.5-2.5V91.2
	c0-1.4,1.1-2.5,2.5-2.5h46.1c1.7,0,2.8-0.7,3.8-2.3c1.2-1.9,1.8-4.3,1.8-7.1c0-2.7-0.6-4.9-1.7-6.8c-0.9-1.5-2.1-2.2-3.9-2.2H102.1z
	"/>
<path fill="none" d="M88.6,167.6c-1.1,0-2.1,0.9-2.1,2.1c0,1.3,1.2,2.3,2.6,2c0.5-0.1,1-0.5,1.3-1v-2
	C90.1,168.1,89.4,167.6,88.6,167.6z"/>
<path fill="#00457C" d="M22.2,134.5h40c1.5,0,2.6-1.2,2.6-2.6v-0.2c0-1.5-1.2-2.6-2.6-2.6h-40c-1.5,0-2.6,1.2-2.6,2.6v0.2
	C19.6,133.3,20.8,134.5,22.2,134.5z"/>
<path fill="#00457C" d="M79.8,134.5h7.1c1.5,0,2.6-1.2,2.6-2.6v-0.2c0-1.5-1.2-2.6-2.6-2.6h-7.1c-1.5,0-2.6,1.2-2.6,2.6v0.2
	C77.2,133.3,78.4,134.5,79.8,134.5z"/>
<path fill="#00457C" d="M34.6,116.7h22.2c1.5,0,2.6-1.2,2.6-2.6v-0.2c0-1.5-1.2-2.6-2.6-2.6H34.6c-1.5,0-2.6,1.2-2.6,2.6v0.2
	C31.9,115.5,33.1,116.7,34.6,116.7z"/>
<path fill="#00457C" d="M121.2,116.7c1.5,0,2.6-1.2,2.6-2.6v-0.2c0-1.5-1.2-2.6-2.6-2.6h-3.9v5.5H121.2z"/>
<path fill="#00457C" d="M73,116.7h17.5v-5.5H73c-1.5,0-2.6,1.2-2.6,2.6v0.2C70.3,115.5,71.5,116.7,73,116.7z"/>
<path fill="#00457C" d="M54,144.8H40.1c-1.5,0-2.6,1.2-2.6,2.6v0.2c0,1.5,1.2,2.6,2.6,2.6H54c1.5,0,2.6-1.2,2.6-2.6v-0.2
	C56.6,146,55.5,144.8,54,144.8z"/>
<path fill="#00457C" d="M84.6,144.8c-1.5,0-2.6,1.2-2.6,2.6v0.2c0,1.5,1.2,2.6,2.6,2.6h5.8v-5.5H84.6z"/>
<path fill="#00457C" d="M62.2,168.8L62.2,168.8c0,1.5,1.2,2.6,2.6,2.6s2.6-1.2,2.6-2.6v0c0-1.5-1.2-2.6-2.6-2.6
	S62.2,167.3,62.2,168.8z"/>
<path fill="#00457C" d="M89.2,171.7c-1.4,0.4-2.6-0.7-2.6-2c0-1.1,0.9-2.1,2.1-2.1c0.8,0,1.5,0.4,1.8,1.1v-6.3
	c-0.6-0.1-1.2-0.2-1.8-0.2c-4.7,0-8.3,4.2-7.4,9.1c0.6,2.9,2.9,5.3,5.9,5.9c1.2,0.2,2.3,0.2,3.3-0.1v-6.3
	C90.2,171.2,89.7,171.5,89.2,171.7z"/>
</svg>
