<?xml version="1.0" encoding="utf-8"?>
<!-- Generator: Adobe Illustrator 18.0.0, SVG Export Plug-In . SVG Version: 6.00 Build 0)  -->
<!DOCTYPE svg PUBLIC "-//W3C//DTD SVG 1.1//EN" "http://www.w3.org/Graphics/SVG/1.1/DTD/svg11.dtd">
<svg version="1.1" id="abc" xmlns="http://www.w3.org/2000/svg" xmlns:xlink="http://www.w3.org/1999/xlink" x="0px" y="0px"
	 width="255px" height="255px" viewBox="0 0 255 255" enable-background="new 0 0 255 255" xml:space="preserve">
<path fill="#00457C" d="M105.9,196.1c-4.1,0-7.7-0.8-10.7-2.5c-4.3-2.4-5.3-5.8-5.3-8.3V76.1c0-3.5,1.6-6.3,4.6-8.2
	c2.7-1.7,5.9-2.5,9.6-2.5h59.7c3.5,0,6.3,1.6,8.2,4.7c1.6,2.7,2.4,5.8,2.4,9.4c0,3.8-0.9,7.1-2.5,9.8c-1.9,3-4.7,4.6-8.1,4.6h-42
	v24.1h23.5c3.3,0,6.1,1.4,8,4.2c1.7,2.5,2.6,5.5,2.6,8.8c0,3.1-0.8,6-2.5,8.4c-1.8,2.8-4.6,4.2-8.1,4.2h-23.5v41.9
	c0,2.5-0.9,5.9-5.3,8.3C113.6,195.2,110,196.1,105.9,196.1z M104.2,70.3c-2.7,0-5.1,0.6-6.9,1.8c-1.6,1-2.3,2.2-2.3,4v109.2
	c0,1.2,0.3,2.6,2.6,3.9c2.3,1.2,5,1.8,8.3,1.8c3.2,0,6-0.6,8.3-1.8c2.3-1.3,2.7-2.8,2.7-3.9v-44.4c0-1.4,1.1-2.5,2.5-2.5h26
	c1.8,0,3-0.6,3.9-2c1.1-1.7,1.6-3.5,1.6-5.7c0-2.4-0.6-4.3-1.7-6c-1-1.4-2.2-2-3.9-2h-26c-1.4,0-2.5-1.1-2.5-2.5V91.2
	c0-1.4,1.1-2.5,2.5-2.5h44.5c1.7,0,2.8-0.7,3.8-2.3c1.2-1.9,1.8-4.3,1.8-7.1c0-2.7-0.6-4.9-1.7-6.8c-0.9-1.5-2.1-2.2-3.9-2.2H104.2z
	"/>
<circle fill="none" cx="171" cy="114.7" r="3.1"/>
<path fill="#00457C" d="M175.2,153.3L175.2,153.3c0,1.5,1.1,2.6,2.5,2.6h13c1.4,0,2.5-1.1,2.5-2.5v-0.1c0-1.4-1.1-2.5-2.5-2.5h-13
	C176.3,150.8,175.2,151.9,175.2,153.3z"/>
<path fill="#00457C" d="M92.5,150.8h-0.8c-1.4,0-2.5,1.1-2.5,2.5v0.1c0,1.4,1.1,2.5,2.5,2.5h0.8V150.8z"/>
<line fill="none" stroke="#00457C" stroke-width="0" stroke-linecap="round" stroke-linejoin="round" x1="164.3" y1="153.3" x2="164.3" y2="153.3"/>
<path fill="#00457C" d="M119.3,155.8h42.5c1.4,0,2.5-1.1,2.5-2.5v0v0c0-1.4-1.1-2.5-2.5-2.5h-42.5V155.8z"/>
<path fill="#00457C" d="M77.6,141.7h14.9v-5H77.6c-1.4,0-2.5,1.1-2.5,2.5v0.1C75.2,140.6,76.3,141.7,77.6,141.7z"/>
<path fill="#00457C" d="M124.4,141.7h6c0.7,0,1.4-0.3,1.8-0.8h-9.6C123.1,141.4,123.7,141.7,124.4,141.7z"/>
<path fill="#00457C" d="M143.9,169.3c1.4,0,2.5-1.1,2.5-2.5v-0.1c0-1.4-1.1-2.5-2.5-2.5h-8.5c-1.4,0-2.5,1.1-2.5,2.5v0.1
	c0,1.4,1.1,2.5,2.5,2.5H143.9z"/>
<path fill="#00457C" d="M217.4,155.4c1.4,0,2.5-1.1,2.5-2.5v0c0-1.4-1.1-2.5-2.5-2.5s-2.5,1.1-2.5,2.5v0
	C214.9,154.3,216,155.4,217.4,155.4z"/>
<path fill="#00457C" d="M162.9,114.7c0,4.5,3.6,8.1,8.1,8.1c4.5,0,8.1-3.7,8.1-8.1c0-4.5-3.6-8.1-8.1-8.1
	C166.5,106.6,162.9,110.3,162.9,114.7z M174.2,114.7c0,1.7-1.4,3.1-3.1,3.1c-1.7,0-3.1-1.4-3.1-3.1c0-1.7,1.4-3.1,3.1-3.1
	C172.8,111.6,174.2,113,174.2,114.7z"/>
</svg>
