<?xml version="1.0" encoding="utf-8"?>
<!-- Generator: Adobe Illustrator 18.0.0, SVG Export Plug-In . SVG Version: 6.00 Build 0)  -->
<!DOCTYPE svg PUBLIC "-//W3C//DTD SVG 1.1//EN" "http://www.w3.org/Graphics/SVG/1.1/DTD/svg11.dtd">
<svg version="1.1" id="abc" xmlns="http://www.w3.org/2000/svg" xmlns:xlink="http://www.w3.org/1999/xlink" x="0px" y="0px"
	 width="255px" height="255px" viewBox="0 0 255 255" enable-background="new 0 0 255 255" xml:space="preserve">
<path fill="#00457C" d="M128.3,197.1c-13.3,0-24.1-3.5-32.2-10.4c-8.2-7-12.4-18-12.4-32.7v-45.6c0-14.7,4.1-25.7,12.3-32.7
	c8.1-6.9,18.6-10.4,31.5-10.4c13.1,0,24.1,3.2,32.5,9.6c8.7,6.5,13.1,15.7,13.1,27.1c0,5.8-1.3,9.7-4,12c-2.6,2.2-6.5,3.3-12,3.3
	c-13,0-15.8-5.7-15.9-10.5c0-1.5-0.1-2.8-0.2-3.8c-0.1-0.9-0.4-2-0.9-3.5c-0.4-1.2-1-2.1-1.7-2.8c-0.8-0.7-2.1-1.4-3.8-2
	c-1.7-0.6-3.8-1-6.3-1c-8.9,0-13,4.7-13,14.7V154c0,10.2,4,14.7,12.8,14.7c8.9,0,13-4.7,13-14.7v-3.3h-7.6c-3.3,0-6.1-1.4-8-4.1
	c-1.7-2.4-2.6-5.4-2.6-8.8c0-3.1,0.9-6,2.7-8.6c1.9-2.8,4.7-4.2,7.9-4.2h28.9c3.3,0,5.9,1.1,7.8,3.4c1.8,2.1,2.8,4.7,2.8,7.6V154
	c0,14.7-4.2,25.7-12.4,32.7C152.6,193.6,141.7,197.1,128.3,197.1z M127.4,70.3c-11.6,0-21.1,3.1-28.2,9.2c-7,6-10.6,15.7-10.6,28.9
	V154c0,13.2,3.6,22.9,10.6,28.9c7.2,6.1,16.9,9.2,29,9.2c12.2,0,22-3.1,29.2-9.2c7.1-6,10.6-15.7,10.6-28.9v-18.1
	c0-1.7-0.5-3.1-1.5-4.3c-1-1.1-2.2-1.6-4-1.6h-28.9c-1.6,0-2.8,0.7-3.8,2.1c-1.2,1.7-1.8,3.6-1.8,5.7c0,2.4,0.6,4.3,1.7,5.9
	c1,1.4,2.2,2,3.9,2h10.1c1.4,0,2.5,1.1,2.5,2.5v5.8c0,16.3-9.8,19.7-18,19.7c-8.1,0-17.8-3.4-17.8-19.7v-45.6
	c0-16.3,9.8-19.7,18-19.7c3,0,5.7,0.4,8,1.3c2.3,0.9,4.1,1.8,5.3,3c1.3,1.2,2.4,2.8,3.1,4.8c0.6,1.8,1,3.3,1.2,4.6
	c0.1,1.2,0.2,2.6,0.2,4.3c0,1.5,0.1,5.6,10.9,5.6c4.1,0,7.1-0.7,8.7-2.1c1.5-1.3,2.2-4.1,2.2-8.2c0-9.9-3.6-17.5-11.1-23.1
	C149.4,73.2,139.4,70.3,127.4,70.3z"/>
<circle fill="none" cx="206" cy="160.6" r="2.7"/>
<path fill="#00457C" d="M21.1,139.6h35c1.5,0,2.7-1.2,2.7-2.7s-1.2-2.7-2.7-2.7h-35c-1.5,0-2.7,1.2-2.7,2.7S19.6,139.6,21.1,139.6z"
	/>
<path fill="#00457C" d="M118.5,139.6c1.5,0,2.7-1.2,2.7-2.7s-1.2-2.7-2.7-2.7H113v5.5H118.5z"/>
<path fill="#00457C" d="M83.5,134.1h-6.9c-1.5,0-2.7,1.2-2.7,2.7s1.2,2.7,2.7,2.7h6.9c1.3,0,2.3-0.9,2.6-2v-1.4
	C85.8,135,84.8,134.1,83.5,134.1z"/>
<path fill="#00457C" d="M86.1,149.9h-4c-1.5,0-2.7,1.2-2.7,2.7c0,1.5,1.2,2.7,2.7,2.7h4c0-0.5,0-0.9,0-1.4V149.9z"/>
<path fill="#00457C" d="M61,155.4c1.5,0,2.7-1.2,2.7-2.7c0-1.5-1.2-2.7-2.7-2.7h-2.3c-1.5,0-2.7,1.2-2.7,2.7c0,1.5,1.2,2.7,2.7,2.7
	H61z"/>
<path fill="#00457C" d="M158.8,224.4h0.2c1.5,0,2.6-1.2,2.6-2.6v-4.5h4.5c1.5,0,2.6-1.2,2.6-2.6v-0.2c0-1.5-1.2-2.6-2.6-2.6h-4.5
	v-4.5c0-1.5-1.2-2.6-2.6-2.6h-0.2c-1.5,0-2.6,1.2-2.6,2.6v4.5h-4.5c-1.5,0-2.6,1.2-2.6,2.6v0.2c0,1.5,1.2,2.6,2.6,2.6h4.5v4.5
	C156.2,223.2,157.4,224.4,158.8,224.4z"/>
<path fill="#00457C" d="M206,152.4c-4.5,0-8.2,3.7-8.2,8.2c0,4.5,3.7,8.2,8.2,8.2c4.5,0,8.2-3.7,8.2-8.2
	C214.3,156.1,210.6,152.4,206,152.4z M206,163.4c-1.5,0-2.7-1.2-2.7-2.7c0-1.5,1.2-2.7,2.7-2.7s2.7,1.2,2.7,2.7
	C208.8,162.2,207.5,163.4,206,163.4z"/>
</svg>
