<?xml version="1.0" encoding="utf-8"?>
<!-- Generator: Adobe Illustrator 18.0.0, SVG Export Plug-In . SVG Version: 6.00 Build 0)  -->
<!DOCTYPE svg PUBLIC "-//W3C//DTD SVG 1.1//EN" "http://www.w3.org/Graphics/SVG/1.1/DTD/svg11.dtd">
<svg version="1.1" id="abc" xmlns="http://www.w3.org/2000/svg" xmlns:xlink="http://www.w3.org/1999/xlink" x="0px" y="0px"
	 width="255px" height="255px" viewBox="0 0 255 255" enable-background="new 0 0 255 255" xml:space="preserve">
<path fill="#00457C" d="M158,196.1c-4.1,0-7.7-0.8-10.7-2.5c-4.3-2.4-5.3-5.8-5.3-8.3v-44.1h-29.2v44.1c0,2.5-0.9,5.9-5.3,8.3
	c-3,1.6-6.6,2.5-10.7,2.5c-4.1,0-7.7-0.8-10.7-2.5c-4.3-2.4-5.3-5.8-5.3-8.3V75.9c0-2.5,0.9-6,5.3-8.2c3-1.6,6.6-2.3,10.6-2.3
	c4.1,0,7.6,0.8,10.6,2.3c4.4,2.3,5.3,5.7,5.3,8.2v39.6h29.2V75.9c0-2.5,0.9-6,5.3-8.2c3-1.6,6.6-2.3,10.6-2.3
	c4.1,0,7.6,0.8,10.6,2.3c4.4,2.3,5.3,5.7,5.3,8.2v109.4c0,2.5-0.9,5.9-5.3,8.3C165.7,195.2,162.1,196.1,158,196.1z M110.4,136.2
	h34.2c1.4,0,2.5,1.1,2.5,2.5v46.6c0,1.2,0.3,2.6,2.6,3.9c2.3,1.2,5,1.8,8.3,1.8c3.2,0,6-0.6,8.3-1.8c2.3-1.3,2.6-2.8,2.6-3.9V75.9
	c0-1.1-0.3-2.6-2.6-3.8c-2.3-1.2-5.1-1.8-8.3-1.8c-3.2,0-6,0.6-8.3,1.8c-2.3,1.2-2.6,2.7-2.6,3.8V118c0,1.4-1.1,2.5-2.5,2.5h-34.2
	c-1.4,0-2.5-1.1-2.5-2.5V75.9c0-1.1-0.3-2.6-2.6-3.8c-2.3-1.2-5.1-1.8-8.3-1.8c-3.2,0-6,0.6-8.3,1.8c-2.3,1.2-2.6,2.7-2.6,3.8v109.4
	c0,1.2,0.3,2.6,2.6,3.9c2.3,1.2,5,1.8,8.3,1.8c3.2,0,6-0.6,8.3-1.8c2.3-1.3,2.7-2.8,2.7-3.9v-46.6
	C107.9,137.3,109,136.2,110.4,136.2z"/>
<path fill="#00457C" d="M78.8,51.6h-4.3c-1.5,0-2.6,1.2-2.6,2.6v0.2c0,1.5,1.2,2.6,2.6,2.6h4.3c1.5,0,2.6-1.2,2.6-2.6v-0.2
	C81.5,52.8,80.3,51.6,78.8,51.6z"/>
<path fill="#00457C" d="M152.1,54.4v-0.2c0-1.5-1.2-2.6-2.6-2.6h-47.5c-1.5,0-2.6,1.2-2.6,2.6v0.2c0,1.5,1.2,2.6,2.6,2.6h47.5
	C150.9,57.1,152.1,55.9,152.1,54.4z"/>
<path fill="#00457C" d="M115.9,42c1.5,0,2.6-1.2,2.6-2.6v-0.2c0-1.5-1.2-2.6-2.6-2.6h-6.4c-1.5,0-2.6,1.2-2.6,2.6v0.2
	c0,1.5,1.2,2.6,2.6,2.6H115.9z"/>
<path fill="#00457C" d="M121.1,66c-1.5,0-2.6,1.2-2.6,2.6v0.2c0,1.5,1.2,2.6,2.6,2.6h9.1c1.5,0,2.6-1.2,2.6-2.6v-0.2
	c0-1.5-1.2-2.6-2.6-2.6H121.1z"/>
<path fill="#00457C" d="M62.8,80.4c-1.5,0-2.6,1.2-2.6,2.6v0c0,1.5,1.2,2.6,2.6,2.6s2.6-1.2,2.6-2.6v0
	C65.5,81.6,64.3,80.4,62.8,80.4z"/>
<path fill="#00457C" d="M196,141.3c1.5,0,2.7-1.2,2.7-2.7v-1.7h1.7c1.5,0,2.7-1.2,2.7-2.7c0-1.5-1.2-2.7-2.7-2.7h-1.7v-1.7
	c0-1.5-1.2-2.7-2.7-2.7s-2.7,1.2-2.7,2.7v1.7h-1.7c-1.5,0-2.7,1.2-2.7,2.7c0,1.5,1.2,2.7,2.7,2.7h1.7v1.7
	C193.2,140.1,194.4,141.3,196,141.3z"/>
</svg>
