<?xml version="1.0" encoding="utf-8"?>
<!-- Generator: Adobe Illustrator 18.0.0, SVG Export Plug-In . SVG Version: 6.00 Build 0)  -->
<!DOCTYPE svg PUBLIC "-//W3C//DTD SVG 1.1//EN" "http://www.w3.org/Graphics/SVG/1.1/DTD/svg11.dtd">
<svg version="1.1" id="abc" xmlns="http://www.w3.org/2000/svg" xmlns:xlink="http://www.w3.org/1999/xlink" x="0px" y="0px"
	 width="255px" height="255px" viewBox="0 0 255 255" enable-background="new 0 0 255 255" xml:space="preserve">
<path fill="#00457C" d="M127.5,196.1c-4.1,0-7.7-0.8-10.7-2.5c-4.3-2.4-5.3-5.8-5.3-8.3V75.9c0-2.5,0.9-6,5.3-8.2
	c3-1.6,6.6-2.3,10.6-2.3c4.1,0,7.6,0.8,10.6,2.3c4.4,2.3,5.3,5.7,5.3,8.2v109.4c0,2.5-0.9,5.9-5.3,8.3
	C135.2,195.2,131.6,196.1,127.5,196.1z M127.5,70.3c-3.2,0-6,0.6-8.3,1.8c-2.3,1.2-2.6,2.7-2.6,3.8v109.4c0,1.2,0.3,2.6,2.6,3.9
	c2.3,1.2,5,1.8,8.3,1.8c3.2,0,6-0.6,8.3-1.8c2.3-1.3,2.7-2.8,2.7-3.9V75.9c0-1.1-0.3-2.6-2.6-3.8C133.5,70.9,130.7,70.3,127.5,70.3z
	"/>
<path fill="#00457C" d="M196.2,116.5h-1.8v-1.8c0-1.5-1.2-2.6-2.6-2.6h-0.2c-1.5,0-2.6,1.2-2.6,2.6v1.8h-1.8c-1.5,0-2.6,1.2-2.6,2.6
	v0.2c0,1.5,1.2,2.6,2.6,2.6h1.8v1.8c0,1.5,1.2,2.6,2.6,2.6h0.2c1.5,0,2.6-1.2,2.6-2.6V122h1.8c1.5,0,2.6-1.2,2.6-2.6v-0.2
	C198.8,117.7,197.7,116.5,196.2,116.5z"/>
<circle fill="#00457C" cx="101.2" cy="177.2" r="2.6"/>
<path fill="#00457C" d="M25,125c0,1.5,1.2,2.7,2.7,2.7h13.7c1.5,0,2.7-1.2,2.7-2.7s-1.2-2.7-2.7-2.7H27.8
	C26.3,122.3,25,123.5,25,125z"/>
<path fill="#00457C" d="M55.9,125c0,1.5,1.2,2.7,2.7,2.7H106c1.5,0,2.7-1.2,2.7-2.7s-1.2-2.7-2.7-2.7H58.6
	C57.1,122.3,55.9,123.5,55.9,125z"/>
<path fill="#00457C" d="M75.1,110.6L75.1,110.6c0,1.5,1.2,2.7,2.7,2.7h8.9c1.5,0,2.7-1.2,2.7-2.7v0c0-1.5-1.2-2.7-2.7-2.7h-8.9
	C76.3,107.9,75.1,109.1,75.1,110.6z"/>
</svg>
