<?xml version="1.0" encoding="utf-8"?>
<!-- Generator: Adobe Illustrator 18.0.0, SVG Export Plug-In . SVG Version: 6.00 Build 0)  -->
<!DOCTYPE svg PUBLIC "-//W3C//DTD SVG 1.1//EN" "http://www.w3.org/Graphics/SVG/1.1/DTD/svg11.dtd">
<svg version="1.1" id="abc" xmlns="http://www.w3.org/2000/svg" xmlns:xlink="http://www.w3.org/1999/xlink" x="0px" y="0px"
	 width="255px" height="255px" viewBox="0 0 255 255" enable-background="new 0 0 255 255" xml:space="preserve">
<path fill="#00457C" d="M124.6,197.1c-13.1,0-24.1-3.4-32.6-10.2c-8.7-6.9-13.1-16.4-13.1-28.3c0-5.7,1.3-9.7,4-12
	c2.6-2.2,6.5-3.3,12.1-3.3c12.3,0,15.3,5.6,15.7,10.4c0.2,2.3,0.5,4.1,0.7,5.4c0.2,1.2,0.8,2.8,1.7,4.8c0.7,1.6,1.8,2.7,3.4,3.5
	c1.8,0.9,4.1,1.3,6.9,1.3c9,0,13.2-4.7,13.2-14.7V93.7h-12.5c-3.4,0-6.2-1.6-8.1-4.6c-1.7-2.7-2.5-6-2.5-9.8c0-3.5,0.8-6.7,2.4-9.4
	c1.8-3,4.7-4.7,8.2-4.7h30.1c3.7,0,6.9,0.9,9.6,2.5c3,1.9,4.6,4.7,4.6,8.2V154c0,14.7-4.1,25.7-12.3,32.7
	C148,193.6,137.4,197.1,124.6,197.1z M95,148.4c-5.3,0-7.8,1.1-8.9,2.1c-1.5,1.3-2.2,4.1-2.2,8.2c0,10.4,3.7,18.4,11.2,24.4
	c7.6,6,17.5,9.1,29.5,9.1c11.6,0,21.1-3.1,28.2-9.2c7-6,10.6-15.7,10.6-28.9V76.1c0-1.8-0.7-3-2.3-4c-1.9-1.2-4.2-1.8-6.9-1.8h-30.1
	c-1.8,0-3,0.7-3.9,2.2c-1.1,1.9-1.7,4.1-1.7,6.8c0,2.8,0.6,5.2,1.8,7.1c1,1.6,2.2,2.3,3.8,2.3h15c1.4,0,2.5,1.1,2.5,2.5V154
	c0,16.3-9.9,19.7-18.2,19.7c-3.6,0-6.6-0.6-9.1-1.8c-2.7-1.3-4.6-3.3-5.8-6c-1-2.3-1.6-4.2-2-5.7c-0.3-1.5-0.6-3.4-0.8-5.9
	C105.6,152.6,105.3,148.4,95,148.4z"/>
<path fill="#00457C" d="M226,118h-4.3c-1.5,0-2.6,1.2-2.6,2.6v0.2c0,1.5,1.2,2.6,2.6,2.6h4.3c1.5,0,2.6-1.2,2.6-2.6v-0.2
	C228.6,119.2,227.5,118,226,118z"/>
<path fill="#00457C" d="M165.9,123.5h32.7c1.5,0,2.6-1.2,2.6-2.6v-0.2c0-1.5-1.2-2.6-2.6-2.6h-32.7V123.5z"/>
<path fill="#00457C" d="M191,102.9h-6.4c-1.5,0-2.6,1.2-2.6,2.6v0.2c0,1.5,1.2,2.6,2.6,2.6h6.4c1.5,0,2.6-1.2,2.6-2.6v-0.2
	C193.7,104.1,192.5,102.9,191,102.9z"/>
<path fill="#00457C" d="M182,135c0-1.5-1.2-2.6-2.6-2.6h-9.1c-1.5,0-2.6,1.2-2.6,2.6v0.2c0,1.5,1.2,2.6,2.6,2.6h9.1
	c1.5,0,2.6-1.2,2.6-2.6V135z"/>
<path fill="#00457C" d="M237.7,146.8c-1.5,0-2.6,1.2-2.6,2.6v0c0,1.5,1.2,2.6,2.6,2.6s2.6-1.2,2.6-2.6v0
	C240.3,148,239.1,146.8,237.7,146.8z"/>
</svg>
