<?xml version="1.0" encoding="utf-8"?>
<!-- Generator: Adobe Illustrator 18.0.0, SVG Export Plug-In . SVG Version: 6.00 Build 0)  -->
<!DOCTYPE svg PUBLIC "-//W3C//DTD SVG 1.1//EN" "http://www.w3.org/Graphics/SVG/1.1/DTD/svg11.dtd">
<svg version="1.1" id="abc" xmlns="http://www.w3.org/2000/svg" xmlns:xlink="http://www.w3.org/1999/xlink" x="0px" y="0px"
	 width="255px" height="255px" viewBox="0 0 255 255" enable-background="new 0 0 255 255" xml:space="preserve">
<path fill="#00457C" d="M160.9,197.1c-5,0-8.9-2.1-11.4-6.2L122,149.2l-4.6,5.9v30.3c0,2.5-0.9,5.9-5.3,8.3c-3,1.6-6.6,2.5-10.7,2.5
	c-4.1,0-7.7-0.8-10.7-2.5c-4.3-2.4-5.3-5.8-5.3-8.3V75.9c0-2.5,0.9-6,5.3-8.2c3-1.6,6.6-2.3,10.6-2.3c4.1,0,7.6,0.8,10.6,2.3
	c4.4,2.3,5.3,5.7,5.3,8.2v33.4l27.6-39.1c2.2-3.2,5.3-4.8,9.1-4.8c4.1,0,8.2,1.7,12.2,5c4.1,3.4,6.1,7.2,6.1,11.3
	c0,2.4-0.7,4.6-2.2,6.6c0,0-0.1,0.1-0.1,0.1l-27.1,34l34.6,53c1.2,1.9,1.8,3.9,1.8,5.8c0,4.1-2,7.8-6.1,11.1
	C169.6,195.5,165.3,197.1,160.9,197.1z M122.2,142.4C122.2,142.4,122.2,142.4,122.2,142.4c0.9,0,1.6,0.5,2.1,1.1l29.4,44.7
	c1.6,2.7,3.9,3.9,7.2,3.9c3.3,0,6.4-1.2,9.4-3.7c2.9-2.3,4.2-4.7,4.2-7.3c0-1-0.3-2.1-1-3.2L138,123.5c-0.6-0.9-0.5-2.1,0.1-2.9
	l28.2-35.4c0.8-1.2,1.2-2.4,1.2-3.7c0-2.6-1.4-5-4.4-7.5c-3-2.5-6-3.8-9-3.8c-2.1,0-3.7,0.9-5,2.7L117,118.6
	c-0.6,0.9-1.8,1.3-2.8,0.9c-1-0.3-1.7-1.3-1.7-2.4V75.9c0-1.1-0.3-2.6-2.6-3.8c-2.3-1.2-5.1-1.8-8.3-1.8c-3.2,0-6,0.6-8.3,1.8
	c-2.3,1.2-2.6,2.7-2.6,3.8v109.4c0,1.2,0.3,2.6,2.6,3.9c2.3,1.2,5,1.8,8.3,1.8c3.2,0,6-0.6,8.3-1.8c2.3-1.3,2.7-2.8,2.7-3.9v-31.1
	c0-0.6,0.2-1.1,0.5-1.5l7.2-9.3C120.7,142.7,121.4,142.4,122.2,142.4z"/>
<path fill="#00457C" d="M52.8,156c0-1.5-1.2-2.7-2.7-2.7H15c-1.5,0-2.7,1.2-2.7,2.7c0,1.5,1.2,2.7,2.7,2.7h35
	C51.5,158.8,52.8,157.5,52.8,156z"/>
<path fill="#00457C" d="M115.2,156c0-0.4-0.1-0.7-0.2-1.1v2.1C115.1,156.8,115.2,156.4,115.2,156z"/>
<path fill="#00457C" d="M80.2,156c0-1.5-1.2-2.7-2.7-2.7h-6.9c-1.5,0-2.7,1.2-2.7,2.7c0,1.5,1.2,2.7,2.7,2.7h6.9
	C79,158.8,80.2,157.5,80.2,156z"/>
<path fill="#00457C" d="M76.1,169c-1.5,0-2.7,1.2-2.7,2.7s1.2,2.7,2.7,2.7h12V169H76.1z"/>
<path fill="#00457C" d="M54.9,169h-2.3c-1.5,0-2.7,1.2-2.7,2.7s1.2,2.7,2.7,2.7h2.3c1.5,0,2.7-1.2,2.7-2.7S56.5,169,54.9,169z"/>
<path fill="#00457C" d="M68.5,130.6c0-1.5-1.2-2.7-2.7-2.7H43.8c-1.5,0-2.7,1.2-2.7,2.7v0c0,1.5,1.2,2.7,2.7,2.7h21.9
	C67.3,133.4,68.5,132.2,68.5,130.6L68.5,130.6z"/>
<path fill="#00457C" d="M85,127.9c-1.5,0-2.7,1.2-2.7,2.7v0c0,1.5,1.2,2.7,2.7,2.7h3.1v-5.5H85z"/>
<path fill="#00457C" d="M33.6,112.8c-1.5,0-2.7,1.2-2.7,2.7v0c0,1.5,1.2,2.7,2.7,2.7h18.5c1.5,0,2.7-1.2,2.7-2.7v0
	c0-1.5-1.2-2.7-2.7-2.7H33.6z"/>
<path fill="#00457C" d="M68.5,118.3h6.9c1.5,0,2.7-1.2,2.7-2.7v0c0-1.5-1.2-2.7-2.7-2.7h-6.9c-1.5,0-2.7,1.2-2.7,2.7v0
	C65.8,117.1,67,118.3,68.5,118.3z"/>
<path fill="#00457C" d="M72.6,99.8L72.6,99.8c0-1.5-1.2-2.7-2.7-2.7H48.6c-1.5,0-2.7,1.2-2.7,2.7v0c0,1.5,1.2,2.7,2.7,2.7h21.3
	C71.4,102.5,72.6,101.3,72.6,99.8z"/>
</svg>
