<?xml version="1.0" encoding="utf-8"?>
<!-- Generator: Adobe Illustrator 18.0.0, SVG Export Plug-In . SVG Version: 6.00 Build 0)  -->
<!DOCTYPE svg PUBLIC "-//W3C//DTD SVG 1.1//EN" "http://www.w3.org/Graphics/SVG/1.1/DTD/svg11.dtd">
<svg version="1.1" id="abc" xmlns="http://www.w3.org/2000/svg" xmlns:xlink="http://www.w3.org/1999/xlink" x="0px" y="0px"
	 width="255px" height="255px" viewBox="0 0 255 255" enable-background="new 0 0 255 255" xml:space="preserve">
<path fill="#00457C" d="M160.5,196.1h-54.4c-3.7,0-6.9-0.9-9.6-2.5c-3-1.9-4.6-4.7-4.6-8.2V75.9c0-2.5,0.9-6,5.3-8.2
	c3-1.6,6.6-2.3,10.6-2.3c4.1,0,7.6,0.8,10.6,2.3c4.4,2.3,5.3,5.7,5.3,8.2v91.8h36.7c3.3,0,6,1.6,7.8,4.7c1.6,2.7,2.4,5.9,2.4,9.5
	c0,3.7-0.8,6.9-2.4,9.5C166.5,194.4,163.8,196.1,160.5,196.1z M107.9,70.3c-3.2,0-6,0.6-8.3,1.8c-2.3,1.2-2.6,2.7-2.6,3.8v109.4
	c0,1.8,0.7,3,2.3,4c1.9,1.2,4.2,1.8,6.9,1.8h54.4c1,0,2.3-0.3,3.5-2.2c1.1-1.9,1.7-4.2,1.7-7c0-2.7-0.6-5.1-1.7-7
	c-1.2-2-2.5-2.2-3.5-2.2h-39.2c-1.4,0-2.5-1.1-2.5-2.5V75.9c0-1.1-0.3-2.6-2.6-3.8C113.9,70.9,111.1,70.3,107.9,70.3z"/>
<circle fill="none" cx="191.4" cy="147.2" r="3.1"/>
<path fill="#00457C" d="M211.1,106.2h-13c-1.4,0-2.5,1.1-2.5,2.5v0.1c0,1.4,1.1,2.5,2.5,2.5h13c1.4,0,2.5-1.1,2.5-2.5v-0.1
	C213.5,107.3,212.4,106.2,211.1,106.2z"/>
<line fill="none" stroke="#00457C" stroke-width="0" stroke-linecap="round" stroke-linejoin="round" x1="184.7" y1="108.7" x2="184.7" y2="108.7"/>
<path fill="#00457C" d="M184.7,108.7L184.7,108.7L184.7,108.7c0-1.5-1.1-2.6-2.5-2.6h-44.4c-1.4,0-2.5,1.1-2.5,2.5v0.1
	c0,1.4,1.1,2.5,2.5,2.5h44.4C183.6,111.2,184.7,110.1,184.7,108.7z"/>
<line fill="none" stroke="#00457C" stroke-width="0" stroke-linecap="round" stroke-linejoin="round" x1="128.9" y1="122.8" x2="128.9" y2="122.8"/>
<path fill="#00457C" d="M121.3,125.3h5.1c1.4,0,2.5-1.1,2.5-2.5v0v0c0-1.4-1.1-2.5-2.5-2.5h-5.1V125.3z"/>
<path fill="#00457C" d="M150.8,125.3c1.4,0,2.5-1.1,2.5-2.5v-0.1c0-1.4-1.1-2.5-2.5-2.5h-6c-1.4,0-2.5,1.1-2.5,2.5v0.1
	c0,1.4,1.1,2.5,2.5,2.5H150.8z"/>
<path fill="#00457C" d="M155.7,92.7c-1.4,0-2.5,1.1-2.5,2.5v0.1c0,1.4,1.1,2.5,2.5,2.5h8.5c1.4,0,2.5-1.1,2.5-2.5v-0.1
	c0-1.4-1.1-2.5-2.5-2.5H155.7z"/>
<path fill="#00457C" d="M237.8,106.6c-1.4,0-2.5,1.1-2.5,2.5v0c0,1.4,1.1,2.5,2.5,2.5s2.5-1.1,2.5-2.5v0
	C240.2,107.7,239.1,106.6,237.8,106.6z"/>
<path fill="#00457C" d="M191.4,139.1c-4.5,0-8.1,3.7-8.1,8.1c0,4.5,3.7,8.1,8.1,8.1c4.5,0,8.1-3.6,8.1-8.1
	C199.6,142.8,195.9,139.1,191.4,139.1z M191.4,150.4c-1.7,0-3.1-1.4-3.1-3.1c0-1.7,1.4-3.1,3.1-3.1s3.1,1.4,3.1,3.1
	C194.5,149,193.1,150.4,191.4,150.4z"/>
</svg>
