<?xml version="1.0" encoding="utf-8"?>
<!-- Generator: Adobe Illustrator 18.0.0, SVG Export Plug-In . SVG Version: 6.00 Build 0)  -->
<!DOCTYPE svg PUBLIC "-//W3C//DTD SVG 1.1//EN" "http://www.w3.org/Graphics/SVG/1.1/DTD/svg11.dtd">
<svg version="1.1" id="abc" xmlns="http://www.w3.org/2000/svg" xmlns:xlink="http://www.w3.org/1999/xlink" x="0px" y="0px"
	 width="255px" height="255px" viewBox="0 0 255 255" enable-background="new 0 0 255 255" xml:space="preserve">
<path fill="#00457C" d="M166,196.1c-4.1,0-7.7-0.8-10.7-2.5c-4.3-2.4-5.3-5.8-5.3-8.3V130l-11.9,20.3c-2.4,4.1-6.2,6.2-11.1,6.2
	c-4.8,0-8.5-2.2-10.6-6.3l-11.6-21.3v56.4c0,2.5-0.9,5.9-5.3,8.3c-3,1.6-6.6,2.5-10.7,2.5c-4.1,0-7.7-0.8-10.7-2.5
	c-4.3-2.4-5.3-5.8-5.3-8.3V81.2c0-5.3,1.6-9.4,4.8-12.1c3-2.6,6.8-3.9,11.2-3.9c5.7,0,9.9,0.9,13,2.7c3.1,1.8,6.4,5.7,10,12
	l15.5,27.2L143,80c3.6-6.3,6.8-10.2,10-12c3.1-1.8,7.4-2.7,13-2.7c4.4,0,8.1,1.3,11.2,3.9c3.2,2.7,4.8,6.7,4.8,12.1v104.1
	c0,2.5-0.9,5.9-5.3,8.3C173.7,195.2,170.1,196.1,166,196.1z M152.6,118.3c0.2,0,0.4,0,0.7,0.1c1.1,0.3,1.8,1.3,1.8,2.4v64.5
	c0,1.2,0.3,2.6,2.6,3.9c2.3,1.2,5,1.8,8.3,1.8c3.2,0,6-0.6,8.3-1.8c2.3-1.3,2.7-2.8,2.7-3.9V81.2c0-3.8-1-6.5-3-8.2
	c-2.1-1.8-4.7-2.7-7.9-2.7c-4.7,0-8.2,0.7-10.5,2c-1.6,0.9-4.3,3.4-8.1,10.2l-17.7,31c-0.4,0.8-1.3,1.3-2.2,1.3l0,0
	c-0.9,0-1.7-0.5-2.2-1.3l-17.7-31c-3.8-6.8-6.5-9.3-8.1-10.2c-2.3-1.3-5.8-2-10.5-2c-3.2,0-5.8,0.9-7.9,2.7c-2,1.7-3,4.4-3,8.2
	v104.1c0,1.2,0.3,2.6,2.6,3.9c2.3,1.2,5,1.8,8.3,1.8c3.2,0,6-0.6,8.3-1.8c2.3-1.3,2.6-2.8,2.6-3.9v-66.2c0-1.1,0.8-2.1,1.9-2.4
	c1.1-0.3,2.3,0.2,2.8,1.2l16.3,29.9c1.3,2.5,3.3,3.7,6.2,3.7c3.1,0,5.3-1.2,6.8-3.8l16.5-28.2C150.9,118.8,151.7,118.3,152.6,118.3z
	"/>
<path fill="#00457C" d="M108.5,210.7h-35c-1.5,0-2.7,1.2-2.7,2.7c0,1.5,1.2,2.7,2.7,2.7h35c1.5,0,2.7-1.2,2.7-2.7
	C111.2,211.9,110,210.7,108.5,210.7z"/>
<path fill="#00457C" d="M170.9,216.1c1.5,0,2.7-1.2,2.7-2.7c0-1.5-1.2-2.7-2.7-2.7h-18.5c-1.5,0-2.7,1.2-2.7,2.7
	c0,1.5,1.2,2.7,2.7,2.7H170.9z"/>
<path fill="#00457C" d="M135.9,210.7h-6.9c-1.5,0-2.7,1.2-2.7,2.7c0,1.5,1.2,2.7,2.7,2.7h6.9c1.5,0,2.7-1.2,2.7-2.7
	C138.7,211.9,137.5,210.7,135.9,210.7z"/>
<path fill="#00457C" d="M131.8,229.2c0,1.5,1.2,2.7,2.7,2.7h21.3c1.5,0,2.7-1.2,2.7-2.7c0-1.5-1.2-2.7-2.7-2.7h-21.3
	C133,226.4,131.8,227.7,131.8,229.2z"/>
<path fill="#00457C" d="M113.4,226.4h-2.3c-1.5,0-2.7,1.2-2.7,2.7c0,1.5,1.2,2.7,2.7,2.7h2.3c1.5,0,2.7-1.2,2.7-2.7
	C116.2,227.7,114.9,226.4,113.4,226.4z"/>
<path fill="#00457C" d="M57,87.5c0-1.5-1.2-2.7-2.7-2.7h-1.7v-1.7c0-1.5-1.2-2.7-2.7-2.7s-2.7,1.2-2.7,2.7v1.7h-1.7
	c-1.5,0-2.7,1.2-2.7,2.7c0,1.5,1.2,2.7,2.7,2.7h1.7V92c0,1.5,1.2,2.7,2.7,2.7s2.7-1.2,2.7-2.7v-1.7h1.7C55.8,90.3,57,89.1,57,87.5z"
	/>
</svg>
