<?xml version="1.0" encoding="utf-8"?>
<!-- Generator: Adobe Illustrator 18.0.0, SVG Export Plug-In . SVG Version: 6.00 Build 0)  -->
<!DOCTYPE svg PUBLIC "-//W3C//DTD SVG 1.1//EN" "http://www.w3.org/Graphics/SVG/1.1/DTD/svg11.dtd">
<svg version="1.1" id="abc" xmlns="http://www.w3.org/2000/svg" xmlns:xlink="http://www.w3.org/1999/xlink" x="0px" y="0px"
	 width="255px" height="255px" viewBox="0 0 255 255" enable-background="new 0 0 255 255" xml:space="preserve">
<path fill="#00457C" d="M127.4,197.1c-13.3,0-24.1-3.5-32.2-10.4c-8.2-7-12.4-18-12.4-32.7v-45.6c0-14.7,4.2-25.7,12.4-32.7
	c8.1-6.9,19-10.4,32.2-10.4c13.4,0,24.3,3.5,32.4,10.4c8.2,7,12.4,18,12.4,32.7V154c0,14.7-4.2,25.7-12.4,32.7
	C151.7,193.6,140.8,197.1,127.4,197.1z M127.4,70.3c-12.1,0-21.8,3.1-29,9.2c-7.1,6-10.6,15.7-10.6,28.9V154
	c0,13.2,3.6,22.9,10.6,28.9c7.2,6.1,16.9,9.2,29,9.2c12.2,0,22-3.1,29.2-9.2c7.1-6,10.6-15.7,10.6-28.9v-45.6
	c0-13.2-3.6-22.9-10.6-28.9C149.4,73.4,139.6,70.3,127.4,70.3z M127.4,173.7c-8.1,0-17.8-3.4-17.8-19.7v-45.6
	c0-16.3,9.7-19.7,17.8-19.7c8.2,0,18,3.4,18,19.7V154C145.4,170.3,135.6,173.7,127.4,173.7z M127.4,93.7c-8.7,0-12.8,4.7-12.8,14.7
	V154c0,10.2,4,14.7,12.8,14.7c8.9,0,13-4.7,13-14.7v-45.6C140.4,98.4,136.3,93.7,127.4,93.7z"/>
<path fill="#00457C" d="M77.7,132.6c-1.5,0-2.6,1.2-2.6,2.6v0.2c0,1.5,1.2,2.6,2.6,2.6h7.6v-5.5H77.7z"/>
<path fill="#00457C" d="M123.8,135.5v-0.2c0-1.5-1.2-2.6-2.6-2.6h-9v5.5h9C122.6,138.1,123.8,136.9,123.8,135.5z"/>
<path fill="#00457C" d="M47.5,138.1h11.2c1.5,0,2.6-1.2,2.6-2.6v-0.2c0-1.5-1.2-2.6-2.6-2.6H47.5c-1.5,0-2.6,1.2-2.6,2.6v0.2
	C44.9,136.9,46.1,138.1,47.5,138.1z"/>
<path fill="#00457C" d="M47.7,153.2c1.5,0,2.6-1.2,2.6-2.6v-0.2c0-1.5-1.2-2.6-2.6-2.6H18c-1.5,0-2.6,1.2-2.6,2.6v0.2
	c0,1.5,1.2,2.6,2.6,2.6H47.7z"/>
<path fill="#00457C" d="M75.2,153.2c1.5,0,2.6-1.2,2.6-2.6v-0.2c0-1.5-1.2-2.6-2.6-2.6h-7.1c-1.5,0-2.6,1.2-2.6,2.6v0.2
	c0,1.5,1.2,2.6,2.6,2.6H75.2z"/>
<path fill="#00457C" d="M73.6,163.5c-1.5,0-2.6,1.2-2.6,2.6v0.2c0,1.5,1.2,2.6,2.6,2.6h13.5c-0.5-1.7-0.9-3.6-1.2-5.5H73.6z"/>
<line fill="none" stroke="#00457C" stroke-width="0" stroke-linecap="round" stroke-linejoin="round" x1="80.4" y1="104.6" x2="80.4" y2="104.6"/>
<path fill="#00457C" d="M63.2,107.3h4.5v4.5c0,1.5,1.2,2.6,2.6,2.6h0.2c1.5,0,2.6-1.2,2.6-2.6v-4.5h4.5c1.5,0,2.6-1.2,2.6-2.6v-0.1
	v-0.1c0-1.5-1.2-2.6-2.6-2.6h-4.5v-4.5c0-1.5-1.2-2.6-2.6-2.6h-0.2c-1.5,0-2.6,1.2-2.6,2.6v4.5h-4.5c-1.5,0-2.6,1.2-2.6,2.6v0.2
	C60.6,106.2,61.8,107.3,63.2,107.3z"/>
</svg>
