<?xml version="1.0" encoding="utf-8"?>
<!-- Generator: Adobe Illustrator 18.0.0, SVG Export Plug-In . SVG Version: 6.00 Build 0)  -->
<!DOCTYPE svg PUBLIC "-//W3C//DTD SVG 1.1//EN" "http://www.w3.org/Graphics/SVG/1.1/DTD/svg11.dtd">
<svg version="1.1" id="abc" xmlns="http://www.w3.org/2000/svg" xmlns:xlink="http://www.w3.org/1999/xlink" x="0px" y="0px"
	 width="255px" height="255px" viewBox="0 0 255 255" enable-background="new 0 0 255 255" xml:space="preserve">
<path fill="#00457C" d="M101.3,196.1c-4.1,0-7.7-0.8-10.7-2.5c-4.3-2.4-5.3-5.8-5.3-8.3V75.9c0-2.9,1.2-5.5,3.6-7.6
	c2.3-2,5.3-3,8.9-3h35.6c12.8,0,23.3,3.4,31.1,10.2c7.9,6.8,12,17.6,12,31.9v0.9c0,14.4-4.2,25.2-12.5,32.1
	c-8.2,6.8-19,10.3-32.3,10.3h-14.5v34.7c0,2.5-0.9,5.9-5.3,8.3C108.9,195.2,105.3,196.1,101.3,196.1z M97.8,70.3
	c-2.4,0-4.2,0.6-5.6,1.8c-1.3,1.1-1.9,2.3-1.9,3.8v109.4c0,1.2,0.3,2.6,2.6,3.9c2.3,1.2,5,1.8,8.3,1.8c3.2,0,6-0.6,8.3-1.8
	c2.3-1.3,2.6-2.8,2.6-3.9v-37.2c0-1.4,1.1-2.5,2.5-2.5h17c12.1,0,21.9-3.1,29.1-9.1c7.1-5.9,10.7-15.5,10.7-28.3v-0.9
	c0-12.8-3.4-22.3-10.2-28.1c-6.9-5.9-16.3-8.9-27.9-8.9H97.8z M131.7,130h-17c-1.4,0-2.5-1.1-2.5-2.5V91.2c0-1.4,1.1-2.5,2.5-2.5h17
	c8.2,0,18,3.4,18,19.7v1.9C149.7,126.6,139.9,130,131.7,130z M117.2,125h14.5c8.9,0,13-4.7,13-14.7v-1.9c0-10-4.1-14.7-13-14.7
	h-14.5V125z"/>
<path fill="#00457C" d="M172.2,172.3c0,1.5,1.2,2.7,2.7,2.7h35c1.5,0,2.7-1.2,2.7-2.7s-1.2-2.7-2.7-2.7h-35
	C173.5,169.5,172.2,170.8,172.2,172.3z"/>
<path fill="#00457C" d="M131.1,175c1.5,0,2.7-1.2,2.7-2.7s-1.2-2.7-2.7-2.7h-16.4v5.5H131.1z"/>
<path fill="#00457C" d="M154.4,175c1.5,0,2.7-1.2,2.7-2.7s-1.2-2.7-2.7-2.7h-6.9c-1.5,0-2.7,1.2-2.7,2.7s1.2,2.7,2.7,2.7H154.4z"/>
<path fill="#00457C" d="M124.9,188.1c0,1.5,1.2,2.7,2.7,2.7h21.3c1.5,0,2.7-1.2,2.7-2.7c0-1.5-1.2-2.7-2.7-2.7h-21.3
	C126.2,185.3,124.9,186.5,124.9,188.1z"/>
<path fill="#00457C" d="M172.4,185.3h-2.3c-1.5,0-2.7,1.2-2.7,2.7c0,1.5,1.2,2.7,2.7,2.7h2.3c1.5,0,2.7-1.2,2.7-2.7
	C175.1,186.5,173.9,185.3,172.4,185.3z"/>
<path fill="#00457C" d="M187.9,133h1.8v1.8c0,1.5,1.2,2.6,2.6,2.6h0.2c1.5,0,2.6-1.2,2.6-2.6V133h1.8c1.5,0,2.6-1.2,2.6-2.6v-0.2
	c0-1.5-1.2-2.6-2.6-2.6h-1.8v-1.8c0-1.5-1.2-2.6-2.6-2.6h-0.2c-1.5,0-2.6,1.2-2.6,2.6v1.8h-1.8c-1.5,0-2.6,1.2-2.6,2.6v0.2
	C185.3,131.8,186.4,133,187.9,133z"/>
<path fill="#00457C" d="M45,136.1c0-1.5-1.2-2.7-2.7-2.7H28.5c-1.5,0-2.7,1.2-2.7,2.7s1.2,2.7,2.7,2.7h13.7
	C43.7,138.8,45,137.6,45,136.1z"/>
<path fill="#00457C" d="M59.4,138.8h28.5v-5.5H59.4c-1.5,0-2.7,1.2-2.7,2.7S57.9,138.8,59.4,138.8z"/>
<path fill="#00457C" d="M87.5,118.9h-8.9c-1.5,0-2.7,1.2-2.7,2.7v0c0,1.5,1.2,2.7,2.7,2.7h8.9c0.1,0,0.2,0,0.4,0V119
	C87.7,118.9,87.6,118.9,87.5,118.9z"/>
</svg>
