<?xml version="1.0" encoding="utf-8"?>
<!-- Generator: Adobe Illustrator 18.0.0, SVG Export Plug-In . SVG Version: 6.00 Build 0)  -->
<!DOCTYPE svg PUBLIC "-//W3C//DTD SVG 1.1//EN" "http://www.w3.org/Graphics/SVG/1.1/DTD/svg11.dtd">
<svg version="1.1" id="abc" xmlns="http://www.w3.org/2000/svg" xmlns:xlink="http://www.w3.org/1999/xlink" x="0px" y="0px"
	 width="255px" height="255px" viewBox="0 0 255 255" enable-background="new 0 0 255 255" xml:space="preserve">
<path fill="#00457C" d="M127.4,214.8c-2.8,0-5.3-0.9-7.4-2.8c-2.2-1.9-3.4-4.6-3.4-8v-7.8c-10-1.6-18.1-5.7-24.1-12.1
	c-6.5-6.9-9.8-17.1-9.8-30.2v-45.6c0-14.8,4.1-25.8,12.3-32.8c8.1-6.8,18.9-10.3,32.3-10.3c13.4,0,24.3,3.5,32.4,10.3
	c8.2,6.9,12.4,18,12.4,32.8V154c0,13-3.3,23.1-9.9,30.1c-6.1,6.5-14.2,10.6-24.2,12.2v7.8c0,3.4-1.1,6.1-3.4,8
	C132.7,213.9,130.2,214.8,127.4,214.8z M127.4,70.3c-12.2,0-22,3.1-29.1,9.1c-7,6-10.6,15.7-10.6,29V154c0,11.8,2.8,20.8,8.4,26.8
	c5.6,6,13.5,9.7,23.2,10.8c1.3,0.2,2.2,1.2,2.2,2.5v10c0,1.9,0.5,3.3,1.6,4.2c1.2,1,2.6,1.5,4.1,1.5c1.6,0,2.9-0.5,4.1-1.5
	c1.1-0.9,1.6-2.3,1.6-4.2v-10c0-1.3,0.9-2.3,2.2-2.5c9.8-1.2,17.6-4.9,23.3-10.9c5.7-6,8.5-15,8.5-26.7v-45.6c0-13.3-3.6-23-10.6-29
	C149.4,73.4,139.6,70.3,127.4,70.3z M119.2,172c-0.4,0-0.8-0.1-1.2-0.3c-5.5-3.1-8.3-9-8.3-17.7v-45.6c0-16.3,9.7-19.7,17.8-19.7
	c8.2,0,18,3.4,18,19.7V154c0,8.5-2.9,14.4-8.5,17.7c-0.8,0.4-1.7,0.4-2.5,0c-0.8-0.4-1.2-1.3-1.2-2.2v-7.6c0-1.9-0.5-3.2-1.5-4.1
	c-1.1-1-2.5-1.5-4.2-1.5c-1.7,0-3.1,0.5-4.2,1.5c-1,0.9-1.5,2.2-1.5,4.1v7.6c0,0.9-0.5,1.7-1.2,2.2C120,171.9,119.6,172,119.2,172z
	 M127.4,151.3c2.9,0,5.4,0.9,7.5,2.7c2.2,1.9,3.3,4.5,3.3,7.9v1.8c1.5-2.4,2.2-5.6,2.2-9.7v-45.6c0-10-4.1-14.7-13-14.7
	c-8.7,0-12.8,4.7-12.8,14.7V154c0,4.1,0.7,7.2,2.1,9.6v-1.7c0-3.4,1.1-6.1,3.3-7.9C122,152.2,124.5,151.3,127.4,151.3z"/>
<circle fill="none" cx="64.6" cy="165.7" r="4.2"/>
<path fill="#00457C" d="M45.4,102.9c0-1.4-1.1-2.5-2.5-2.5H2.4c-1.4,0-2.5,1.1-2.5,2.5c0,1.4,1.1,2.5,2.5,2.5h40.5
	C44.3,105.4,45.4,104.3,45.4,102.9z"/>
<line fill="none" stroke="#00457C" stroke-width="0" stroke-linecap="round" stroke-linejoin="round" x1="58.2" y1="102.9" x2="58.2" y2="102.9"/>
<path fill="#00457C" d="M73.6,102.9c0-1.4-1.1-2.5-2.5-2.5H60.7c-1.4,0-2.5,1.1-2.5,2.5c0,1.4,1.1,2.5,2.5,2.5h10.4
	C72.5,105.4,73.6,104.3,73.6,102.9z"/>
<path fill="#00457C" d="M85.3,114.5H71c-1.4,0-2.5,1.1-2.5,2.5s1.1,2.5,2.5,2.5h14.3V114.5z"/>
<line fill="none" stroke="#00457C" stroke-width="0" stroke-linecap="round" stroke-linejoin="round" x1="135.1" y1="117" x2="135.1" y2="117"/>
<path fill="#00457C" d="M135.1,117c0-1.4-1.1-2.5-2.5-2.5h-17.4c-1.4,0-2.5,1.1-2.5,2.5s1.1,2.5,2.5,2.5h17.4
	C134,119.5,135.1,118.4,135.1,117z"/>
<path fill="#00457C" d="M51.8,114.5h-6.5c-1.4,0-2.5,1.1-2.5,2.5s1.1,2.5,2.5,2.5h6.5c1.4,0,2.5-1.1,2.5-2.5S53.2,114.5,51.8,114.5z
	"/>
<line fill="none" stroke="#00457C" stroke-width="0" stroke-linecap="round" stroke-linejoin="round" x1="49.2" y1="131.7" x2="49.2" y2="131.7"/>
<line fill="none" stroke="#00457C" stroke-width="0" stroke-linecap="round" stroke-linejoin="round" x1="24.2" y1="131.7" x2="24.2" y2="131.7"/>
<path fill="#00457C" d="M49.2,131.7c0-1.4-1.1-2.5-2.5-2.5h-20c-1.4,0-2.5,1.1-2.5,2.5v0c0,1.4,1.1,2.5,2.5,2.5h20
	C48.1,134.2,49.2,133.1,49.2,131.7L49.2,131.7z"/>
<path fill="#00457C" d="M64.6,174.9c5.1,0,9.2-4.1,9.2-9.2c0-5.1-4.1-9.2-9.2-9.2c-5.1,0-9.2,4.1-9.2,9.2
	C55.4,170.8,59.5,174.9,64.6,174.9z M64.6,161.6c2.3,0,4.2,1.9,4.2,4.2c0,2.3-1.9,4.2-4.2,4.2c-2.3,0-4.2-1.9-4.2-4.2
	C60.4,163.4,62.3,161.6,64.6,161.6z"/>
</svg>
