<?xml version="1.0" encoding="utf-8"?>
<!-- Generator: Adobe Illustrator 18.0.0, SVG Export Plug-In . SVG Version: 6.00 Build 0)  -->
<!DOCTYPE svg PUBLIC "-//W3C//DTD SVG 1.1//EN" "http://www.w3.org/Graphics/SVG/1.1/DTD/svg11.dtd">
<svg version="1.1" id="abc" xmlns="http://www.w3.org/2000/svg" xmlns:xlink="http://www.w3.org/1999/xlink" x="0px" y="0px"
	 width="255px" height="255px" viewBox="0 0 255 255" enable-background="new 0 0 255 255" xml:space="preserve">
<path fill="#00457C" d="M156.9,197.1c-4.9,0-8.7-2.2-10.8-6.3l-22.9-44.4h-7.3v39c0,2.5-0.9,5.9-5.3,8.3c-3,1.6-6.6,2.5-10.7,2.5
	c-4.1,0-7.7-0.8-10.7-2.5c-4.3-2.4-5.3-5.8-5.3-8.3V75.9c0-2.8,1-5.3,3-7.4c2-2.1,4.6-3.2,7.7-3.2h35.6c29.7,0,44.8,13.2,44.8,39.3
	c0,17.8-6.7,29.9-19.8,36.1l19.6,35.5c0.8,1.2,1.2,2.7,1.2,4.4c0,4.1-2.1,7.9-6.3,11.4C165.9,195.4,161.5,197.1,156.9,197.1z
	 M113.4,141.3h11.4c0.9,0,1.8,0.5,2.2,1.4l23.6,45.8c1.3,2.5,3.3,3.6,6.4,3.6c3.4,0,6.7-1.3,9.8-3.9c3-2.5,4.5-5,4.5-7.5
	c0-0.7-0.1-1.3-0.4-1.6c-0.1-0.1-0.1-0.2-0.2-0.2l-21-38c-0.3-0.6-0.4-1.4-0.2-2.1c0.2-0.7,0.8-1.2,1.4-1.5
	c12.9-5,19.2-15.7,19.2-32.6c0-23.1-13-34.3-39.8-34.3H94.8c-1.7,0-3.1,0.5-4.1,1.6c-1.1,1.1-1.6,2.4-1.6,3.9v109.4
	c0,1.2,0.3,2.6,2.6,3.9c2.3,1.2,5,1.8,8.3,1.8c3.2,0,6-0.6,8.3-1.8c2.3-1.3,2.6-2.8,2.6-3.9v-41.5
	C110.9,142.5,112,141.3,113.4,141.3z M130.4,125.7h-17c-1.4,0-2.5-1.1-2.5-2.5v-32c0-1.4,1.1-2.5,2.5-2.5h17
	c5.7,0,10.1,1.5,13.2,4.4c3.2,2.9,4.8,7.7,4.8,14.1c0,6.4-1.6,11.2-4.7,14.1C140.6,124.2,136.1,125.7,130.4,125.7z M115.9,120.7
	h14.5c4.4,0,7.7-1,9.8-3c2.1-2,3.2-5.5,3.2-10.5c0-5-1.1-8.5-3.2-10.5c-2.1-2-5.5-3-9.8-3h-14.5V120.7z"/>
<circle fill="none" cx="108.2" cy="50.4" r="2.7"/>
<path fill="#00457C" d="M77.6,89.1c1.5,0,2.6-1.2,2.6-2.6v-0.2c0-1.5-1.2-2.6-2.6-2.6h-4.5v-4.5c0-1.5-1.2-2.6-2.6-2.6h-0.2
	c-1.5,0-2.6,1.2-2.6,2.6v4.5H63c-1.5,0-2.6,1.2-2.6,2.6v0.2c0,1.5,1.2,2.6,2.6,2.6h4.5v4.5c0,1.5,1.2,2.6,2.6,2.6h0.2
	c1.5,0,2.6-1.2,2.6-2.6v-4.5H77.6z"/>
<path fill="#00457C" d="M108.2,42.1c-4.5,0-8.2,3.7-8.2,8.2c0,4.5,3.7,8.2,8.2,8.2c4.5,0,8.2-3.7,8.2-8.2
	C116.5,45.8,112.8,42.1,108.2,42.1z M108.2,53.1c-1.5,0-2.7-1.2-2.7-2.7s1.2-2.7,2.7-2.7c1.5,0,2.7,1.2,2.7,2.7
	S109.8,53.1,108.2,53.1z"/>
<circle fill="#00457C" cx="56.2" cy="31" r="2.6"/>
<path fill="#00457C" d="M140.9,94.1c-0.3,0.4-0.5,1-0.5,1.5c0,1.5,1.2,2.7,2.7,2.7h1.1c-0.6-1.4-1.4-2.5-2.4-3.4
	C141.6,94.6,141.3,94.3,140.9,94.1z"/>
<path fill="#00457C" d="M181.6,95.6c0-1.5-1.2-2.7-2.7-2.7h-7.5c0.4,1.7,0.7,3.6,1,5.5h6.5C180.4,98.4,181.6,97.1,181.6,95.6z"/>
<path fill="#00457C" d="M209.1,98.4c1.5,0,2.7-1.2,2.7-2.7c0-1.5-1.2-2.7-2.7-2.7h-11c-1.5,0-2.7,1.2-2.7,2.7c0,1.5,1.2,2.7,2.7,2.7
	H209.1z"/>
<path fill="#00457C" d="M188.5,108h-6.9c-1.5,0-2.7,1.2-2.7,2.7l0,0c0,1.5,1.2,2.7,2.7,2.7h6.9c1.5,0,2.7-1.2,2.7-2.7l0,0
	C191.2,109.2,190,108,188.5,108z"/>
</svg>
