<?xml version="1.0" encoding="utf-8"?>
<!-- Generator: Adobe Illustrator 18.0.0, SVG Export Plug-In . SVG Version: 6.00 Build 0)  -->
<!DOCTYPE svg PUBLIC "-//W3C//DTD SVG 1.1//EN" "http://www.w3.org/Graphics/SVG/1.1/DTD/svg11.dtd">
<svg version="1.1" id="abc" xmlns="http://www.w3.org/2000/svg" xmlns:xlink="http://www.w3.org/1999/xlink" x="0px" y="0px"
	 width="255px" height="255px" viewBox="0 0 255 255" enable-background="new 0 0 255 255" xml:space="preserve">
<path fill="#00457C" d="M127.5,196.1c-4.1,0-7.7-0.8-10.7-2.5c-4.3-2.4-5.3-5.8-5.3-8.3V93.7H90.3c-3.4,0-6.2-1.6-8.1-4.6
	c-1.7-2.7-2.5-6-2.5-9.8c0-3.6,0.8-6.7,2.4-9.4c1.8-3,4.6-4.6,8.2-4.6h74.3c3.5,0,6.3,1.6,8.2,4.6c1.6,2.7,2.4,5.8,2.4,9.4
	c0,3.8-0.9,7.1-2.5,9.8c-1.9,3-4.7,4.6-8.1,4.6h-21.2v91.5c0,2.5-0.9,6-5.3,8.3C135.2,195.2,131.6,196.1,127.5,196.1z M90.3,70.3
	c-1.8,0-3,0.7-3.9,2.2c-1.1,1.9-1.7,4.1-1.7,6.8c0,2.9,0.6,5.2,1.8,7.1c1,1.6,2.2,2.3,3.8,2.3h23.7c1.4,0,2.5,1.1,2.5,2.5v94
	c0,1.2,0.3,2.7,2.7,4c2.3,1.2,5,1.9,8.3,1.9c3.2,0,6-0.6,8.3-1.9c2.4-1.3,2.7-2.8,2.7-4v-94c0-1.4,1.1-2.5,2.5-2.5h23.7
	c1.7,0,2.8-0.7,3.8-2.3c1.2-1.9,1.8-4.3,1.8-7.1c0-2.7-0.6-4.9-1.7-6.8c-0.9-1.5-2.1-2.2-3.9-2.2H90.3z"/>
<path fill="#00457C" d="M140,188.6h32c1.5,0,2.7-1.2,2.7-2.7c0-1.5-1.2-2.7-2.7-2.7h-31.1v2.1C140.9,186.5,140.6,187.6,140,188.6z"
	/>
<path fill="#00457C" d="M93.1,188.6c1.5,0,2.7-1.2,2.7-2.7c0-1.5-1.2-2.7-2.7-2.7H74.6c-1.5,0-2.7,1.2-2.7,2.7
	c0,1.5,1.2,2.7,2.7,2.7H93.1z"/>
<path fill="#00457C" d="M114.1,183.1h-4.5c-1.5,0-2.7,1.2-2.7,2.7c0,1.5,1.2,2.7,2.7,2.7h5.4c-0.6-1-0.9-2.1-0.9-3.4V183.1z"/>
<path fill="#00457C" d="M87,201.6c0,1.5,1.2,2.7,2.7,2.7H111c1.5,0,2.7-1.2,2.7-2.7c0-1.5-1.2-2.7-2.7-2.7H89.7
	C88.2,198.9,87,200.1,87,201.6z"/>
<path fill="#00457C" d="M134.4,198.9h-2.3c-1.5,0-2.7,1.2-2.7,2.7c0,1.5,1.2,2.7,2.7,2.7h2.3c1.5,0,2.7-1.2,2.7-2.7
	C137.2,200.1,135.9,198.9,134.4,198.9z"/>
<path fill="#00457C" d="M143.2,163.2c1.5,0,2.7-1.2,2.7-2.7v0c0-1.5-1.2-2.7-2.7-2.7h-2.3v5.5H143.2z"/>
<path fill="#00457C" d="M104.8,160.5c0-1.5-1.2-2.7-2.7-2.7h-11c-1.5,0-2.7,1.2-2.7,2.7v0c0,1.5,1.2,2.7,2.7,2.7h11
	C103.6,163.2,104.8,162,104.8,160.5L104.8,160.5z"/>
<path fill="#00457C" d="M153.5,148.1c1.5,0,2.7-1.2,2.7-2.7v0c0-1.5-1.2-2.7-2.7-2.7h-12.6v5.5H153.5z"/>
<path fill="#00457C" d="M111.6,142.6c-1.5,0-2.7,1.2-2.7,2.7v0c0,1.5,1.2,2.7,2.7,2.7h2.4v-5.5H111.6z"/>
<path fill="#00457C" d="M141.1,129.6L141.1,129.6c0-0.4-0.1-0.7-0.2-1.1v2.1C141.1,130.4,141.1,130,141.1,129.6z"/>
</svg>
