<?xml version="1.0" encoding="utf-8"?>
<!-- Generator: Adobe Illustrator 18.0.0, SVG Export Plug-In . SVG Version: 6.00 Build 0)  -->
<!DOCTYPE svg PUBLIC "-//W3C//DTD SVG 1.1//EN" "http://www.w3.org/Graphics/SVG/1.1/DTD/svg11.dtd">
<svg version="1.1" id="abc" xmlns="http://www.w3.org/2000/svg" xmlns:xlink="http://www.w3.org/1999/xlink" x="0px" y="0px"
	 width="255px" height="255px" viewBox="0 0 255 255" enable-background="new 0 0 255 255" xml:space="preserve">
<path fill="#00457C" d="M127.5,197.1c-13.7,0-24.9-3.5-33.2-10.4c-8.4-7-12.7-18-12.7-32.7V75.9c0-3.6,1.8-6.4,5.2-8.2
	c2.9-1.6,6.5-2.4,10.7-2.4c4.1,0,7.6,0.8,10.6,2.3c4.4,2.3,5.3,5.7,5.3,8.2V154c0,10,4.5,14.7,14,14.7c9.6,0,14-4.7,14-14.7V75.9
	c0-3.6,1.8-6.4,5.2-8.2c2.9-1.6,6.5-2.4,10.7-2.4c4.1,0,7.6,0.8,10.6,2.3c4.4,2.3,5.3,5.7,5.3,8.2V154c0,14.7-4.3,25.7-12.8,32.7
	C152.2,193.6,141.1,197.1,127.5,197.1z M97.6,70.3c-3.4,0-6.2,0.6-8.4,1.8c-2.3,1.2-2.5,2.7-2.5,3.8V154c0,13.1,3.7,22.9,10.9,28.9
	c7.4,6.1,17.4,9.2,30,9.2c12.4,0,22.5-3.1,29.9-9.2c7.3-6,11-15.7,11-28.9V75.9c0-1.1-0.3-2.6-2.6-3.8c-2.3-1.2-5.1-1.8-8.3-1.8
	c-3.4,0-6.2,0.6-8.4,1.8c-2.3,1.2-2.5,2.7-2.5,3.8V154c0,12.9-6.6,19.7-19,19.7s-19-6.8-19-19.7V75.9c0-1.1-0.3-2.6-2.6-3.8
	C103.6,70.9,100.8,70.3,97.6,70.3z"/>
<path fill="none" d="M122.6,212.7c0,1.3,1.2,2.3,2.6,2c0.7-0.2,1.3-0.8,1.5-1.5c0.3-1.3-0.7-2.5-2-2.5
	C123.5,210.7,122.6,211.6,122.6,212.7z"/>
<path fill="#00457C" d="M58.3,172.1c-1.5,0-2.6,1.2-2.6,2.6v0.2c0,1.5,1.2,2.6,2.6,2.6h31.4c-1-1.7-1.9-3.5-2.7-5.5H58.3z"/>
<path fill="#00457C" d="M174.4,177.5c1.5,0,2.6-1.2,2.6-2.6v-0.2c0-1.5-1.2-2.6-2.6-2.6h-6.5c-0.7,2-1.6,3.8-2.7,5.5H174.4z"/>
<path fill="#00457C" d="M70.6,154.2c-1.5,0-2.6,1.2-2.6,2.6v0.2c0,1.5,1.2,2.6,2.6,2.6h13.8c-0.2-1.8-0.2-3.6-0.2-5.5H70.6z"/>
<path fill="#00457C" d="M135.3,159.7c1.5,0,2.6-1.2,2.6-2.6v-0.2c0-1.5-1.2-2.6-2.6-2.6H111c0,2,0.2,3.8,0.6,5.5H135.3z"/>
<path fill="#00457C" d="M92.7,190.7v-0.2c0-1.5-1.2-2.6-2.6-2.6H76.1c-1.5,0-2.6,1.2-2.6,2.6v0.2c0,1.5,1.2,2.6,2.6,2.6H90
	C91.5,193.3,92.7,192.1,92.7,190.7z"/>
<path fill="#00457C" d="M148.3,193.3c1.5,0,2.6-1.2,2.6-2.6v-0.2c0-0.2,0-0.4-0.1-0.6c-3.2,1.5-6.6,2.6-10.3,3.4H148.3z"/>
<path fill="#00457C" d="M131,136.4L131,136.4c-1.5,0-2.6,1.2-2.6,2.6c0,1.5,1.2,2.6,2.6,2.6h0c1.5,0,2.6-1.2,2.6-2.6
	C133.6,137.6,132.4,136.4,131,136.4z"/>
<path fill="#00457C" d="M98.3,211.8L98.3,211.8c0,1.5,1.2,2.6,2.6,2.6s2.6-1.2,2.6-2.6v0c0-1.5-1.2-2.6-2.6-2.6
	S98.3,210.4,98.3,211.8z"/>
<path fill="#00457C" d="M117.3,214.3c0.6,2.9,2.9,5.3,5.9,5.9c4.8,0.9,9.1-2.7,9.1-7.4c0-4.2-3.4-7.5-7.5-7.5
	C120,205.2,116.3,209.4,117.3,214.3z M126.7,213.2c-0.2,0.7-0.7,1.3-1.5,1.5c-1.4,0.4-2.6-0.7-2.6-2c0-1.1,0.9-2.1,2.1-2.1
	C126,210.7,127,211.9,126.7,213.2z"/>
</svg>
