<?xml version="1.0" encoding="utf-8"?>
<!-- Generator: Adobe Illustrator 18.0.0, SVG Export Plug-In . SVG Version: 6.00 Build 0)  -->
<!DOCTYPE svg PUBLIC "-//W3C//DTD SVG 1.1//EN" "http://www.w3.org/Graphics/SVG/1.1/DTD/svg11.dtd">
<svg version="1.1" id="abc" xmlns="http://www.w3.org/2000/svg" xmlns:xlink="http://www.w3.org/1999/xlink" x="0px" y="0px"
	 width="255px" height="255px" viewBox="0 0 255 255" enable-background="new 0 0 255 255" xml:space="preserve">
<path fill="#00457C" d="M127.6,197.1c-4.6,0-8.7-0.9-12.3-2.6c-3.9-1.8-6.5-4.6-7.6-8.1L75.5,81.5c0,0,0-0.1,0-0.1
	c-0.4-1.5-0.4-2.1-0.4-2.5c0-3.9,2.3-7.2,6.8-9.9c4.1-2.4,8.4-3.6,12.9-3.6c7.7,0,10.3,3.7,11.2,6.8l21.7,79.4l21.5-79.4
	c0.9-3.1,3.5-6.8,11.2-6.8c4.4,0,8.8,1.2,12.9,3.6c4.5,2.7,6.8,6,6.8,9.9c0,0.6-0.1,1.3-0.4,2.5c0,0,0,0.1,0,0.1l-32,104.9
	c-1.1,3.6-3.7,6.3-7.6,8.2C136.3,196.2,132.2,197.1,127.6,197.1z M80.3,80l32.1,104.9c0.7,2.2,2.3,3.8,5,5.1
	c2.9,1.4,6.3,2.1,10.2,2.1s7.3-0.7,10.2-2.1c2.6-1.2,4.3-2.9,5-5.1l32-104.8c0.2-0.9,0.3-1.2,0.3-1.3c0-0.7,0-3-4.4-5.5
	c-3.3-1.9-6.8-2.9-10.3-2.9c-5.5,0-6.1,2.3-6.4,3.2L130,161.7c-0.3,1.1-1.3,1.8-2.4,1.8c0,0,0,0,0,0c-1.1,0-2.1-0.8-2.4-1.8
	l-24.1-88.2c-0.2-0.9-0.9-3.1-6.4-3.1c-3.5,0-7,1-10.3,2.9C80,75.8,80,78.1,80,78.8v0C80,78.8,80.1,79.1,80.3,80z"/>
<path fill="#00457C" d="M56.4,181.1h-4.3c-1.5,0-2.6,1.2-2.6,2.6v0.2c0,1.5,1.2,2.6,2.6,2.6h4.3c1.5,0,2.6-1.2,2.6-2.6v-0.2
	C59.1,182.3,57.9,181.1,56.4,181.1z"/>
<path fill="#00457C" d="M110,185.6l-1.4-4.6H79.5c-1.5,0-2.6,1.2-2.6,2.6v0.2c0,1.5,1.2,2.6,2.6,2.6h30.9
	C110.3,186.3,110.1,186,110,185.6z"/>
<path fill="#00457C" d="M93.5,171.5c1.5,0,2.6-1.2,2.6-2.6v-0.2c0-1.5-1.2-2.6-2.6-2.6h-6.4c-1.5,0-2.6,1.2-2.6,2.6v0.2
	c0,1.5,1.2,2.6,2.6,2.6H93.5z"/>
<path fill="#00457C" d="M98.7,195.5c-1.5,0-2.6,1.2-2.6,2.6v0.2c0,1.5,1.2,2.6,2.6,2.6h9.1c1.5,0,2.6-1.2,2.6-2.6v-0.2
	c0-1.5-1.2-2.6-2.6-2.6H98.7z"/>
<path fill="#00457C" d="M40.4,209.9c-1.5,0-2.6,1.2-2.6,2.6v0c0,1.5,1.2,2.6,2.6,2.6s2.6-1.2,2.6-2.6v0
	C43.1,211.1,41.9,209.9,40.4,209.9z"/>
</svg>
