<?xml version="1.0" encoding="utf-8"?>
<!-- Generator: Adobe Illustrator 18.0.0, SVG Export Plug-In . SVG Version: 6.00 Build 0)  -->
<!DOCTYPE svg PUBLIC "-//W3C//DTD SVG 1.1//EN" "http://www.w3.org/Graphics/SVG/1.1/DTD/svg11.dtd">
<svg version="1.1" id="abc" xmlns="http://www.w3.org/2000/svg" xmlns:xlink="http://www.w3.org/1999/xlink" x="0px" y="0px"
	 width="255px" height="255px" viewBox="0 0 255 255" enable-background="new 0 0 255 255" xml:space="preserve">
<path fill="#00457C" d="M153.8,197.1c-4.6,0-8.8-0.9-12.4-2.6c-4-1.9-6.5-4.7-7.4-8.3l-6.5-29.7l-6.5,29.6c-0.9,3.7-3.4,6.5-7.4,8.4
	c-3.6,1.7-7.8,2.6-12.4,2.6c-4.6,0-8.8-0.9-12.4-2.6c-4-1.8-6.6-4.6-7.7-8.1L46.9,81.5c-0.3-0.9-0.5-1.9-0.5-3
	c0-3.7,2.3-6.9,6.8-9.6c4.1-2.4,8.5-3.6,13-3.6c7.5,0,10.1,3.7,11,6.8l23.5,79.1l11.4-48.9c0.6-2.9,2.6-5.2,5.8-6.8
	c2.9-1.4,6.1-2.2,9.5-2.2c3.5,0,6.7,0.7,9.5,2.2c3.2,1.6,5.2,3.9,5.8,6.9l11.4,48.9l23.5-79.2c0.8-3.1,3.5-6.8,11-6.8
	c4.6,0,8.9,1.2,13,3.6c4.5,2.7,6.8,5.9,6.8,9.6c0,1.1-0.2,2.1-0.5,3l-34.2,104.9c-1.3,3.6-3.9,6.3-7.8,8.1
	C162.6,196.2,158.4,197.1,153.8,197.1z M127.5,142.4L127.5,142.4c1.2,0,2.2,0.8,2.4,2l8.9,40.8c0.5,2.1,2,3.7,4.6,4.9
	c3,1.4,6.4,2.1,10.3,2.1c3.8,0,7.3-0.7,10.2-2.1c2.7-1.3,4.4-3,5.2-5.2l34.2-104.8c0.2-0.5,0.2-0.9,0.2-1.5c0-1.8-1.5-3.5-4.4-5.2
	c-3.3-1.9-6.9-2.9-10.5-2.9c-5.3,0-6,2.3-6.2,3.2l-26.2,88.3c-0.3,1.1-1.4,1.8-2.5,1.8c-1.1,0-2.1-0.8-2.4-1.9L138,103.5
	c-0.3-1.5-1.3-2.6-3.2-3.5c-2.2-1.1-4.6-1.6-7.3-1.6c-2.7,0-5.1,0.5-7.3,1.6c-1.8,0.9-2.8,2-3.1,3.4l-13.6,58.2
	c-0.3,1.1-1.2,1.9-2.4,1.9c-1.1,0-2.1-0.7-2.5-1.8L72.5,73.5c-0.3-0.9-0.9-3.2-6.2-3.2c-3.7,0-7.2,1-10.5,2.9
	c-2.9,1.7-4.4,3.5-4.4,5.2c0,0.5,0.1,1,0.2,1.4l34.2,104.9c0.7,2.2,2.4,3.9,5,5.1c3,1.4,6.4,2.1,10.3,2.1c3.9,0,7.3-0.7,10.3-2.1
	c2.6-1.2,4.1-2.8,4.6-4.9l8.9-40.7C125.3,143.2,126.3,142.4,127.5,142.4z"/>
<circle fill="none" cx="81.1" cy="228.4" r="3.1"/>
<path fill="#00457C" d="M76.9,189.9L76.9,189.9c0-1.5-1.1-2.6-2.5-2.6h-13c-1.4,0-2.5,1.1-2.5,2.5v0.1c0,1.4,1.1,2.5,2.5,2.5h13
	C75.8,192.3,76.9,191.2,76.9,189.9z"/>
<path fill="#00457C" d="M88.5,191.5c0.4,0.4,0.9,0.7,1.4,0.8c0,0-0.1,0-0.1,0C89.4,192,88.9,191.8,88.5,191.5z"/>
<path fill="#00457C" d="M112.5,192.3c-0.1,0-0.1,0-0.2,0.1h22.4c1.4,0,2.5-1.1,2.5-2.5v-0.1c0-1.4-1.1-2.5-2.5-2.5h-16.8
	C117,189.4,115.2,191,112.5,192.3z"/>
<line fill="none" stroke="#00457C" stroke-width="0" stroke-linecap="round" stroke-linejoin="round" x1="143.6" y1="203.9" x2="143.6" y2="203.9"/>
<path fill="#00457C" d="M146.1,206.4h28.4c1.4,0,2.5-1.1,2.5-2.5v-0.1c0-1.4-1.1-2.5-2.5-2.5h-28.4c-1.4,0-2.5,1.1-2.5,2.5v0v0
	C143.6,205.3,144.7,206.4,146.1,206.4z"/>
<path fill="#00457C" d="M130.1,204L130.1,204c0-1.5-1.1-2.6-2.5-2.6h-6c-1.4,0-2.5,1.1-2.5,2.5v0.1c0,1.4,1.1,2.5,2.5,2.5h6
	C129,206.4,130.1,205.3,130.1,204z"/>
<path fill="#00457C" d="M32.3,190.2L32.3,190.2c0,1.4,1.1,2.5,2.5,2.5c1.4,0,2.5-1.1,2.5-2.5v0c0-1.4-1.1-2.5-2.5-2.5
	C33.4,187.7,32.3,188.8,32.3,190.2z"/>
<path fill="#00457C" d="M81.1,236.5c4.5,0,8.1-3.7,8.1-8.1c0-4.5-3.6-8.1-8.1-8.1c-4.5,0-8.1,3.7-8.1,8.1
	C72.9,232.9,76.6,236.5,81.1,236.5z M81.1,225.3c1.7,0,3.1,1.4,3.1,3.1c0,1.7-1.4,3.1-3.1,3.1s-3.1-1.4-3.1-3.1
	C77.9,226.7,79.3,225.3,81.1,225.3z"/>
</svg>
