<?xml version="1.0" encoding="utf-8"?>
<!-- Generator: Adobe Illustrator 18.0.0, SVG Export Plug-In . SVG Version: 6.00 Build 0)  -->
<!DOCTYPE svg PUBLIC "-//W3C//DTD SVG 1.1//EN" "http://www.w3.org/Graphics/SVG/1.1/DTD/svg11.dtd">
<svg version="1.1" id="abc" xmlns="http://www.w3.org/2000/svg" xmlns:xlink="http://www.w3.org/1999/xlink" x="0px" y="0px"
	 width="255px" height="255px" viewBox="0 0 255 255" enable-background="new 0 0 255 255" xml:space="preserve">
<path fill="#00457C" d="M159,197.1c-4.2,0-7-1.4-8.5-4l-22.9-39l-23,39c-1.7,2.7-4.5,4-8.5,4c-4.5,0-9-1.5-13.4-4.5
	c-4.7-3.2-7-7-7-11.3c0-1.9,0.6-4,1.9-6.1l28.9-44.7L78.8,86.2c-1.4-2.2-2.1-4.5-2.1-6.7c0-4.3,2.3-8,6.8-11
	c4.2-2.8,8.6-4.2,13.1-4.2c4.7,0,8.2,2,10.3,5.8l20.7,36.1L148.2,70c2-3.7,5.6-5.7,10.3-5.7c4.5,0,8.9,1.4,13.1,4.2
	c4.5,3,6.8,6.7,6.8,11c0,2.2-0.7,4.4-2.1,6.7l-27.7,44.4l28.9,44.6c1.3,2.2,2,4.2,2,6.2c0,4.3-2.4,8.1-7,11.3
	C168,195.6,163.5,197.1,159,197.1z M127.5,146.7c0.9,0,1.7,0.5,2.2,1.2l25.1,42.7c0.6,1,2,1.5,4.2,1.5c3.5,0,7-1.2,10.5-3.6
	c3.3-2.2,4.8-4.6,4.8-7.1c0-1-0.4-2.2-1.2-3.5L143.5,132c-0.5-0.8-0.5-1.9,0-2.7L172,83.5c0.9-1.4,1.3-2.8,1.3-4
	c0-2.6-1.5-4.8-4.6-6.9c-3.4-2.2-6.8-3.4-10.3-3.4c-2.9,0-4.7,1-5.9,3.2l-22.9,40c-0.4,0.8-1.3,1.3-2.2,1.3c-0.9,0-1.7-0.5-2.2-1.3
	l-22.9-39.9c-1.2-2.2-3.1-3.2-5.9-3.2c-3.5,0-6.9,1.1-10.3,3.4c-3.1,2-4.6,4.3-4.6,6.9c0,1.2,0.5,2.6,1.3,4l28.6,45.8
	c0.5,0.8,0.5,1.9,0,2.7l-29.8,45.9c-0.7,1.2-1.1,2.4-1.1,3.5c0,2.6,1.6,4.9,4.8,7.1c3.5,2.4,7.1,3.6,10.5,3.6c3.3,0,4-1.2,4.2-1.6
	l25.1-42.6C125.8,147.1,126.6,146.7,127.5,146.7z"/>
<path fill="#00457C" d="M214,132.4h-1.8v-1.8c0-1.5-1.2-2.6-2.6-2.6h-0.2c-1.5,0-2.6,1.2-2.6,2.6v1.8h-1.8c-1.5,0-2.6,1.2-2.6,2.6
	v0.2c0,1.5,1.2,2.6,2.6,2.6h1.8v1.8c0,1.5,1.2,2.6,2.6,2.6h0.2c1.5,0,2.6-1.2,2.6-2.6v-1.8h1.8c1.5,0,2.6-1.2,2.6-2.6V135
	C216.6,133.6,215.4,132.4,214,132.4z"/>
<circle fill="#00457C" cx="118.9" cy="193" r="2.6"/>
<path fill="#00457C" d="M59.3,138.2H45.5c-1.5,0-2.7,1.2-2.7,2.7s1.2,2.7,2.7,2.7h13.7c1.5,0,2.7-1.2,2.7-2.7S60.8,138.2,59.3,138.2
	z"/>
<path fill="#00457C" d="M153.9,140.9c0-1.5-1.2-2.7-2.7-2.7h-0.7l2.9,4.4C153.7,142.1,153.9,141.5,153.9,140.9z"/>
<path fill="#00457C" d="M76.4,138.2c-1.5,0-2.7,1.2-2.7,2.7s1.2,2.7,2.7,2.7H101l3.6-5.5H76.4z"/>
<path fill="#00457C" d="M104.5,123.8h-8.9c-1.5,0-2.7,1.2-2.7,2.7v0c0,1.5,1.2,2.7,2.7,2.7h8.9c1.3,0,2.4-1,2.7-2.2l-2-3.1
	C105,123.8,104.8,123.8,104.5,123.8z"/>
</svg>
