<?xml version="1.0" encoding="utf-8"?>
<!-- Generator: Adobe Illustrator 18.0.0, SVG Export Plug-In . SVG Version: 6.00 Build 0)  -->
<!DOCTYPE svg PUBLIC "-//W3C//DTD SVG 1.1//EN" "http://www.w3.org/Graphics/SVG/1.1/DTD/svg11.dtd">
<svg version="1.1" id="abc" xmlns="http://www.w3.org/2000/svg" xmlns:xlink="http://www.w3.org/1999/xlink" x="0px" y="0px"
	 width="255px" height="255px" viewBox="0 0 255 255" enable-background="new 0 0 255 255" xml:space="preserve">
<path fill="#00457C" d="M127.5,196.1c-4.1,0-7.7-0.8-10.7-2.5c-4.3-2.4-5.3-5.8-5.3-8.3v-43.2c0-0.6-0.2-0.8-0.3-1
	c0,0,0-0.1-0.1-0.1L75.7,82c0-0.1-0.1-0.1-0.1-0.2c-0.4-0.8-0.6-1.8-0.6-3c0-4,2.5-7.3,7.4-9.9c4.4-2.4,8.9-3.6,13.3-3.6
	c2.6,0,4.6,0.5,6.1,1.6c1.3,1,2.6,2.5,3.8,4.7l21.9,40.2l21.7-40.2c2.1-4.1,5.6-6.3,9.9-6.3c4.4,0,8.9,1.2,13.3,3.6
	c4.9,2.6,7.4,6,7.4,9.9c0,1.2-0.2,2.2-0.6,3c0,0.1-0.1,0.1-0.1,0.2l-35.4,59c0,0,0,0.1-0.1,0.1c-0.1,0.2-0.3,0.5-0.3,1v43.2
	c0,2.5-0.9,5.9-5.3,8.3C135.2,195.2,131.6,196.1,127.5,196.1z M115.5,138.4c0.7,1.1,1.1,2.4,1.1,3.7v43.2c0,1.2,0.3,2.6,2.6,3.9
	c2.3,1.2,5,1.8,8.3,1.8c3.2,0,6-0.6,8.3-1.8c2.3-1.3,2.6-2.8,2.6-3.9v-43.2c0-1.4,0.4-2.7,1.1-3.7l35.3-58.8c0-0.1,0.1-0.3,0.1-0.7
	c0-2-1.6-3.8-4.8-5.5c-3.7-2-7.4-3-10.9-3c-2.5,0-4.2,1.2-5.5,3.6l-23.9,44.2c-0.4,0.8-1.3,1.3-2.2,1.3c0,0,0,0,0,0
	c-0.9,0-1.8-0.5-2.2-1.3L101.2,74c-1-1.8-1.9-2.7-2.4-3c-0.3-0.2-1.2-0.6-3.2-0.6c-3.6,0-7.3,1-10.9,3c-3.2,1.7-4.8,3.6-4.8,5.5
	c0,0.4,0,0.7,0.1,0.7L115.5,138.4z"/>
<path fill="#00457C" d="M55.8,156.2h-4.3c-1.5,0-2.6,1.2-2.6,2.6v0.2c0,1.5,1.2,2.6,2.6,2.6h4.3c1.5,0,2.6-1.2,2.6-2.6v-0.2
	C58.4,157.4,57.2,156.2,55.8,156.2z"/>
<path fill="#00457C" d="M78.8,156.2c-1.5,0-2.6,1.2-2.6,2.6v0.2c0,1.5,1.2,2.6,2.6,2.6h35.2v-5.5H78.8z"/>
<path fill="#00457C" d="M92.8,146.6c1.5,0,2.6-1.2,2.6-2.6v-0.2c0-1.5-1.2-2.6-2.6-2.6h-6.4c-1.5,0-2.6,1.2-2.6,2.6v0.2
	c0,1.5,1.2,2.6,2.6,2.6H92.8z"/>
<path fill="#00457C" d="M107.2,170.6h-9.1c-1.5,0-2.6,1.2-2.6,2.6v0.2c0,1.5,1.2,2.6,2.6,2.6h9.1c1.5,0,2.6-1.2,2.6-2.6v-0.2
	C109.8,171.8,108.6,170.6,107.2,170.6z"/>
<path fill="#00457C" d="M39.8,185c-1.5,0-2.6,1.2-2.6,2.6v0c0,1.5,1.2,2.6,2.6,2.6s2.6-1.2,2.6-2.6v0C42.4,186.2,41.2,185,39.8,185z
	"/>
<path fill="#00457C" d="M181.4,49.1h-1.7v-1.7c0-1.5-1.2-2.7-2.7-2.7s-2.7,1.2-2.7,2.7v1.7h-1.7c-1.5,0-2.7,1.2-2.7,2.7
	c0,1.5,1.2,2.7,2.7,2.7h1.7v1.7c0,1.5,1.2,2.7,2.7,2.7s2.7-1.2,2.7-2.7v-1.7h1.7c1.5,0,2.7-1.2,2.7-2.7
	C184.2,50.3,183,49.1,181.4,49.1z"/>
</svg>
