<?xml version="1.0" encoding="utf-8"?>
<!-- Generator: Adobe Illustrator 18.0.0, SVG Export Plug-In . SVG Version: 6.00 Build 0)  -->
<!DOCTYPE svg PUBLIC "-//W3C//DTD SVG 1.1//EN" "http://www.w3.org/Graphics/SVG/1.1/DTD/svg11.dtd">
<svg version="1.1" id="abc" xmlns="http://www.w3.org/2000/svg" xmlns:xlink="http://www.w3.org/1999/xlink" x="0px" y="0px"
	 width="255px" height="255px" viewBox="0 0 255 255" enable-background="new 0 0 255 255" xml:space="preserve">
<path fill="#00457C" d="M164,196.1H90.7c-6.5,0-10.2-3.5-10.2-9.6c0-3.4,1.1-7,3.3-10.7l46.4-82.1H94.5c-3.4,0-6.2-1.6-8.1-4.6
	c-1.7-2.7-2.5-5.9-2.5-9.6c0-3.7,0.8-6.9,2.4-9.5c1.8-3,4.7-4.7,8.2-4.7h66.4c6.5,0,10.2,3.5,10.2,9.6c0,3.2-1.1,6.8-3.2,10.7
	l-46.4,82.1H164c2.3,0,5.5,0.8,8,4.8c1.7,2.8,2.6,6,2.6,9.4s-0.9,6.6-2.6,9.4C169.5,195.2,166.2,196.1,164,196.1z M94.5,70.3
	c-1.8,0-3,0.7-3.9,2.2c-1.1,1.9-1.7,4.2-1.7,7c0,2.7,0.6,5.1,1.8,6.9c1,1.6,2.2,2.3,3.8,2.3h39.9c0.9,0,1.7,0.5,2.2,1.2
	c0.4,0.8,0.5,1.7,0,2.5l-48.5,85.8c-1.7,3-2.6,5.7-2.6,8.2c0,2.7,0.9,4.6,5.2,4.6H164c1,0,2.4-0.3,3.7-2.4c1.3-2,1.9-4.2,1.9-6.8
	s-0.6-4.7-1.9-6.8c-1.3-2.1-2.7-2.4-3.7-2.4h-46.8c-0.9,0-1.7-0.5-2.2-1.2c-0.4-0.8-0.5-1.7,0-2.5l48.5-85.8
	c1.7-3.1,2.6-5.9,2.6-8.2c0-2.7-0.9-4.6-5.2-4.6H94.5z"/>
<circle fill="none" cx="149" cy="208.7" r="4.2"/>
<path fill="#00457C" d="M104.9,143.3H86.8c-1.4,0-2.5,1.1-2.5,2.5c0,1.4,1.1,2.5,2.5,2.5h15.3L104.9,143.3z"/>
<line fill="none" stroke="#00457C" stroke-width="0" stroke-linecap="round" stroke-linejoin="round" x1="142.6" y1="145.8" x2="142.6" y2="145.8"/>
<path fill="#00457C" d="M145.1,143.3c-1.4,0-2.5,1.1-2.5,2.5c0,1.4,1.1,2.5,2.5,2.5h10.4c1.4,0,2.5-1.1,2.5-2.5
	c0-1.4-1.1-2.5-2.5-2.5H145.1z"/>
<path fill="#00457C" d="M183.1,157.4h-27.7c-1.4,0-2.5,1.1-2.5,2.5c0,1.4,1.1,2.5,2.5,2.5h27.7c1.4,0,2.5-1.1,2.5-2.5
	C185.6,158.5,184.4,157.4,183.1,157.4z"/>
<line fill="none" stroke="#00457C" stroke-width="0" stroke-linecap="round" stroke-linejoin="round" x1="219.5" y1="159.9" x2="219.5" y2="159.9"/>
<path fill="#00457C" d="M217,157.4h-17.4c-1.4,0-2.5,1.1-2.5,2.5c0,1.4,1.1,2.5,2.5,2.5H217c1.4,0,2.5-1.1,2.5-2.5
	C219.5,158.5,218.4,157.4,217,157.4z"/>
<path fill="#00457C" d="M129.7,157.4c-1.4,0-2.5,1.1-2.5,2.5c0,1.4,1.1,2.5,2.5,2.5h6.5c1.4,0,2.5-1.1,2.5-2.5
	c0-1.4-1.1-2.5-2.5-2.5H129.7z"/>
<path fill="#00457C" d="M149,199.5c-5.1,0-9.2,4.1-9.2,9.2c0,5.1,4.1,9.2,9.2,9.2s9.2-4.1,9.2-9.2
	C158.2,203.6,154.1,199.5,149,199.5z M149,212.9c-2.3,0-4.2-1.9-4.2-4.2c0-2.3,1.9-4.2,4.2-4.2c2.3,0,4.2,1.9,4.2,4.2
	C153.2,211,151.3,212.9,149,212.9z"/>
</svg>
