<?xml version="1.0" encoding="iso-8859-1"?>
<!-- Generator: Adobe Illustrator 21.0.0, SVG Export Plug-In . SVG Version: 6.00 Build 0)  -->
<svg version="1.1" id="Capa_1" xmlns="http://www.w3.org/2000/svg" xmlns:xlink="http://www.w3.org/1999/xlink" x="0px" y="0px"
	 viewBox="0 0 512 512" style="enable-background:new 0 0 512 512;" xml:space="preserve">
<g>
	<g>
		<path d="M256,0C115.39,0,0,115.39,0,256s115.39,256,256,256s256-115.39,256-256S396.61,0,256,0z M226,448.692
			c-43.506-6.747-82.301-27.933-111.328-58.483L226,334.547V448.692z M226,267.455L80.211,340.35C67.905,314.809,61,286.196,61,256
			c0-97.319,71.671-178.218,165-192.692V267.455z M286,448.692V334.547l111.329,55.667C368.303,420.765,329.505,441.945,286,448.692
			z M431.796,340.346L286,267.448V63.308C379.329,77.782,451,158.681,451,256C451,286.193,444.1,314.806,431.796,340.346z"/>
	</g>
</g>
<g>
</g>
<g>
</g>
<g>
</g>
<g>
</g>
<g>
</g>
<g>
</g>
<g>
</g>
<g>
</g>
<g>
</g>
<g>
</g>
<g>
</g>
<g>
</g>
<g>
</g>
<g>
</g>
<g>
</g>
</svg>
