<?xml version="1.0" encoding="iso-8859-1"?>
<!-- Generator: Adobe Illustrator 21.0.0, SVG Export Plug-In . SVG Version: 6.00 Build 0)  -->
<svg version="1.1" id="Capa_1" xmlns="http://www.w3.org/2000/svg" xmlns:xlink="http://www.w3.org/1999/xlink" x="0px" y="0px"
	 viewBox="0 0 512 512" style="enable-background:new 0 0 512 512;" xml:space="preserve">
<g>
	<g>
		<path d="M346.853,188.632c-7.749,0-12.29,7.104-14.736,13.052L328.309,211h-22.734l-3.867-9.155
			c-2.549-6.035-7.148-13.213-14.561-13.213c-9.756,0-14.854,8.76-14.854,17.402c0,15.072,18.859,29.198,44.707,51.387
			c13.277-10.843,44.707-34.867,44.707-51.387C361.707,197.391,356.609,188.632,346.853,188.632z"/>
	</g>
</g>
<g>
	<g>
		<path d="M512,229.545V91H129.7l-10-60H0v30h94.3l60,359.99h30.463C183.082,425.705,182,430.716,182,436c0,24.814,20.186,45,45,45
			c24.814,0,45-20.186,45-45c0-5.284-1.082-10.295-2.763-15.01h95.526C363.082,425.705,362,430.716,362,436
			c0,24.814,20.186,45,45,45c24.814,0,45-20.186,45-45c0-24.814-20.186-45-45-45H179.7l-5.001-30h271.573L512,229.545z M317,296.972
			c-75.246-63.856-74.707-70.099-74.707-90.938c0-26.587,19.702-47.402,44.853-47.402c11.367,0,21.606,4.409,29.766,12.554
			c8.188-8.071,18.574-12.554,29.941-12.554c25.151,0,44.854,20.815,44.854,47.402C391.707,224.677,389.318,237.543,317,296.972z"/>
	</g>
</g>
<g>
</g>
<g>
</g>
<g>
</g>
<g>
</g>
<g>
</g>
<g>
</g>
<g>
</g>
<g>
</g>
<g>
</g>
<g>
</g>
<g>
</g>
<g>
</g>
<g>
</g>
<g>
</g>
<g>
</g>
</svg>
