<?xml version="1.0" encoding="iso-8859-1"?>

<!-- Generator: Adobe Illustrator 16.0.0, SVG Export Plug-In . SVG Version: 6.00 Build 0)  -->

<!DOCTYPE svg PUBLIC "-//W3C//DTD SVG 1.1//EN" "http://www.w3.org/Graphics/SVG/1.1/DTD/svg11.dtd">

<svg class="uniFB7D" viewBox="0 0 800 800">
  
<path d="M540 426h28v-142h-28v142zM532 142h36l71 -71l-18 -18zM284 426h256v-142h-398zM0 142h532l89 -89l-53 
-53h-568v142zM221 -213l85 85l85 -85l-85 -85zM391 -213l85 85l85 -85l-85 -85zM340 -213l-34 34l-34 -34l34 -34zM510 
-213l-34 34l-34 -34l34 -34zM306 -355l85 85
l85 -85l-85 -85zM425 -355l-34 34l-34 -34l34 -34zM568 142v284l142 -142v-284zM340 -213l-34 34l-34 -34l34 -34zM510 
-213l-34 34l-34 -34l34 -34zM425 -355l-34 34l-34 -34l34 -34z" 
fill="green" stroke="black" stroke-linecap="round" stroke-linejoin="round" stroke-width="5"/>
</svg>