<?xml version="1.0" encoding="iso-8859-1"?>

<!-- Generator: Adobe Illustrator 16.0.0, SVG Export Plug-In . SVG Version: 6.00 Build 0)  -->

<!DOCTYPE svg PUBLIC "-//W3C//DTD SVG 1.1//EN" "http://www.w3.org/Graphics/SVG/1.1/DTD/svg11.dtd">

<svg class="uniFE9B" viewBox="0 0 800 800">
<path d="M256 142h28v-142h-28v142zM129 639l85 85l85 -85l-85 -85zM248 639l-34 34l-34 -34l34 -34zM44 497l85 85l85 -85l-85 -85zM214 497l85 85l85 -85l-85 -85zM163 497l-34 34l-34 -34l34 -34zM333 497l-34 34l-34 -34l34 -34zM0 142h256v-142h-256v142zM248 639l-34 34
l-34 -34l34 -34zM163 497l-34 34l-34 -34l34 -34zM333 497l-34 34l-34 -34l34 -34zM284 284l142 142v-284l-142 -142v284z"
fill="green" stroke="black" stroke-linecap="round" stroke-linejoin="round" stroke-width="5"/>
</svg>