<?xml version="1.0" encoding="iso-8859-1"?>

<!-- Generator: Adobe Illustrator 16.0.0, SVG Export Plug-In . SVG Version: 6.00 Build 0)  -->

<!DOCTYPE svg PUBLIC "-//W3C//DTD SVG 1.1//EN" >

<svg class="uniFB59" viewBox="0 0 800 800">
  
<path d="M1037 426h28v-142h-28v142zM781 284h142v-23h-142v23zM1037 142h28v-142h-28v142zM909 779l85 85l85 
-85l-85 -85zM1028 779l-34 34l-34 -34l34 -34zM824 637l85 85l85 -85l-85 -85zM994 637l85 85l85 -85l-85 -85zM943 
637l-34 34l-34 -34l34 -34zM1113 637l-34 34
l-34 -34l34 -34zM923 426h114v-142h-256zM213 142h852v-142h-852v142zM1028 779l-34 34l-34 -34l34 -34zM943 637l-34 
34l-34 -34l34 -34zM1113 637l-34 34l-34 -34l34 -34zM1065 426l142 -142v-284h-142v426zM71 142l142 142v-284zM781 
261h142v-119h-142v119z" 
fill="green" stroke="black" stroke-linecap="round" stroke-linejoin="round" stroke-width="5"/>
</svg>