<?xml version="1.0" encoding="utf-8"?>
<!-- Generator: Adobe Illustrator 14.0.0, SVG Export Plug-In . SVG Version: 6.00 Build 43363)  -->
<!DOCTYPE svg PUBLIC "-//W3C//DTD SVG 1.1//EN" "http://www.w3.org/Graphics/SVG/1.1/DTD/svg11.dtd">
<svg version="1.1" id="Layer_1" xmlns="http://www.w3.org/2000/svg" xmlns:xlink="http://www.w3.org/1999/xlink" x="0px" y="0px"
	 width="612px" height="792px" viewBox="0 0 612 792" enable-background="new 0 0 612 792" xml:space="preserve">
<path fill="#008000" stroke="#000000" stroke-width="5" stroke-linecap="round" stroke-linejoin="round" d="M386.585,431.396
	l28.745,27.529V319.307h-28.745V431.396z M378.373,179.688h36.957l72.886-69.809l-18.478-17.698L378.373,179.688z M255.185,668.355
	l87.258,83.574l87.26-83.574l-87.26-83.576L255.185,668.355z M377.347,668.355l-34.904,33.43l-34.902-33.43l34.902-33.43
	L377.347,668.355z M386.585,431.396V319.307H269.557L386.585,431.396z M196.67,179.688h181.703l91.365-87.507L415.33,40.07H50.897
	L196.67,179.688z M377.347,668.355l-34.904,33.43l-34.902-33.43l34.902-33.43L377.347,668.355z M415.33,179.688v279.237
	l145.772-139.619V40.07L415.33,179.688z"/>
</svg>
