<?xml version="1.0" encoding="utf-8"?>
<!-- Generator: Adobe Illustrator 14.0.0, SVG Export Plug-In . SVG Version: 6.00 Build 43363)  -->
<!DOCTYPE svg PUBLIC "-//W3C//DTD SVG 1.1//EN" >
<svg version="1.1" id="Layer_1" xmlns="http://www.w3.org/2000/svg" xmlns:xlink="http://www.w3.org/1999/xlink" x="0px" y="0px"
	 width="612px" height="792px" viewBox="0 0 612 792" enable-background="new 0 0 612 792" xml:space="preserve">
<path fill="#008000" stroke="#000000" stroke-width="5" stroke-linecap="round" stroke-linejoin="round" d="M150.315,418.26h108.63
	v-17.595h-108.63V418.26z M367.575,418.26h108.63v-17.595h-108.63V418.26z M346.154,309.63h21.421V201h-21.421V309.63z
	 M258.945,526.89h217.26V418.26h-325.89L258.945,526.89z M150.315,309.63h195.839V201H150.315V309.63z M206.16,146.685h52.785
	l-54.315-55.08h-54.315L206.16,146.685z M150.315,526.89v108.63l108.63,108.631V526.89l-54.315-54.314L150.315,526.89z
	 M367.575,635.52l108.63,108.631V526.89h-108.63V635.52z M150.315,400.665h108.63V309.63h-108.63V400.665z M367.575,400.665h108.63
	V309.63L367.575,201V400.665z M150.315,91.605h108.63l-53.55-53.55h-55.08V91.605z"/>
</svg>
