<?xml version="1.0" encoding="utf-8"?>
<!-- Generator: Adobe Illustrator 14.0.0, SVG Export Plug-In . SVG Version: 6.00 Build 43363)  -->
<!DOCTYPE svg PUBLIC "-//W3C//DTD SVG 1.1//EN" >
<svg version="1.1" id="Layer_1" xmlns="http://www.w3.org/2000/svg" xmlns:xlink="http://www.w3.org/1999/xlink" x="0px" y="0px"
	 width="612px" height="792px" viewBox="0 0 612 792" enable-background="new 0 0 612 792" xml:space="preserve">
<path fill="#008000" stroke="#000000" stroke-width="5" stroke-linecap="round" stroke-linejoin="round" d="M96.083,329.433h23.631
	l46.607-46.967l-11.816-11.907L96.083,329.433z M282.51,329.433h23.632l46.608-46.967l-11.816-11.907L282.51,329.433z
	 M474.19,329.433h18.381V235.5H474.19V329.433z M26.5,329.433h69.583l58.423-58.874L119.714,235.5H26.5V329.433z M212.928,329.433
	h69.582l58.423-58.874L306.142,235.5h-93.214V329.433z M399.356,329.433h74.834V235.5h-74.834V329.433z M119.714,329.433v93.932
	l93.214,93.933V235.5L119.714,329.433z M306.142,329.433v93.932l93.214,93.933V235.5L306.142,329.433z M492.571,423.364
	l93.214,93.933V329.433L492.571,235.5V423.364z"/>
</svg>
