<?xml version="1.0" encoding="utf-8"?>
<!-- Generator: Adobe Illustrator 14.0.0, SVG Export Plug-In . SVG Version: 6.00 Build 43363)  -->
<!DOCTYPE svg PUBLIC "-//W3C//DTD SVG 1.1//EN" >
<svg version="1.1" id="Layer_1" xmlns="http://www.w3.org/2000/svg" xmlns:xlink="http://www.w3.org/1999/xlink" x="0px" y="0px"
	 width="612px" height="792px" viewBox="0 0 612 792" enable-background="new 0 0 612 792" xml:space="preserve">
<path fill="#008000" stroke="#000000" stroke-width="5" stroke-linecap="round" stroke-linejoin="round" d="M389.798,544.801h20.582
	V442.229h-20.582V544.801z M383.917,339.657h26.463l52.19-51.287l-13.231-13.002L383.917,339.657z M240.579,698.66l62.482,61.4
	l62.48-61.4l-62.48-61.398L240.579,698.66z M328.053,698.66l-24.992,24.561l-24.993-24.561l24.993-24.559L328.053,698.66z
	 M201.62,544.801h188.178V442.229H97.24L201.62,544.801z M201.62,339.657h182.297l65.422-64.289l-38.959-38.284H201.62V339.657z
	 M201.62,134.512h313.14L410.38,31.94H201.62V134.512z M328.053,698.66l-24.992,24.561l-24.993-24.561l24.993-24.559L328.053,698.66
	z M410.38,339.657v205.144l104.38-102.572V237.084L410.38,339.657z M97.24,134.512v102.572l104.38,102.573V31.94L97.24,134.512z"/>
</svg>
