<?xml version="1.0" encoding="utf-8"?>
<!-- Generator: Adobe Illustrator 14.0.0, SVG Export Plug-In . SVG Version: 6.00 Build 43363)  -->
<!DOCTYPE svg PUBLIC "-//W3C//DTD SVG 1.1//EN" "http://www.w3.org/Graphics/SVG/1.1/DTD/svg11.dtd">
<svg version="1.1" id="Layer_1" xmlns="http://www.w3.org/2000/svg" xmlns:xlink="http://www.w3.org/1999/xlink" x="0px" y="0px"
	 width="612px" height="792px" viewBox="0 0 612 792" enable-background="new 0 0 612 792" xml:space="preserve">
<path fill="#008000" stroke="#000000" stroke-width="5" stroke-linecap="round" stroke-linejoin="round" d="M362.248,210.42h36.012
	V37.5h-36.012V210.42z M89.59,642.722L198.911,746.23l109.321-103.509l-109.321-103.51L89.59,642.722z M308.231,642.722
	l109.32,103.509l109.32-103.509l-109.32-103.51L308.231,642.722z M242.639,642.722l-43.728,41.402l-43.729-41.402l43.729-41.403
	L242.639,642.722z M461.28,642.722l-43.729,41.402l-43.728-41.402l43.728-41.403L461.28,642.722z M33,210.42h329.248V37.5H33V210.42
	z M242.639,642.722l-43.728,41.402l-43.729-41.402l43.729-41.403L242.639,642.722z M461.28,642.722l-43.729,41.402l-43.728-41.402
	l43.728-41.403L461.28,642.722z M398.26,383.34l182.63,172.92V210.42L398.26,37.5V383.34z"/>
</svg>
