<?xml version="1.0" encoding="utf-8"?>
<!-- Generator: Adobe Illustrator 14.0.0, SVG Export Plug-In . SVG Version: 6.00 Build 43363)  -->
<!DOCTYPE svg PUBLIC "-//W3C//DTD SVG 1.1//EN" "http://www.w3.org/Graphics/SVG/1.1/DTD/svg11.dtd">
<svg version="1.1" id="Layer_1" xmlns="http://www.w3.org/2000/svg" xmlns:xlink="http://www.w3.org/1999/xlink" x="0px" y="0px"
	 width="612px" height="792px" viewBox="0 0 612 792" enable-background="new 0 0 612 792" xml:space="preserve">
<path fill="#008000" stroke="#000000" stroke-width="5" stroke-linecap="round" stroke-linejoin="round" d="M397.978,165.296h31.237
	l61.608-62.898l-15.619-15.946L397.978,165.296z M182.785,668.481l61.607,62.012v-62.012l-30.37-31.892v-31.007l-31.238-31.893
	V668.481z M182.785,165.296h215.192l77.227-78.844L429.215,39.5H59.57L182.785,165.296z M244.393,668.481l31.238,31.007v31.005
	L306,761.5v-93.019l-61.607-63.784V668.481z M429.215,165.296v377.39l123.216,125.796V39.5L429.215,165.296z M182.785,291.093
	v125.795L306,542.686v-377.39L182.785,291.093z"/>
</svg>
