<?xml version="1.0" encoding="utf-8"?>
<!-- Generator: Adobe Illustrator 14.0.0, SVG Export Plug-In . SVG Version: 6.00 Build 43363)  -->
<!DOCTYPE svg PUBLIC "-//W3C//DTD SVG 1.1//EN" >
<svg version="1.1" id="Layer_1" xmlns="http://www.w3.org/2000/svg" xmlns:xlink="http://www.w3.org/1999/xlink" x="0px" y="0px"
	 width="612px" height="792px" viewBox="0 0 612 792" enable-background="new 0 0 612 792" xml:space="preserve">
<path fill="#008000" stroke="#000000" stroke-width="5" stroke-linecap="round" stroke-linejoin="round" d="M447.524,435.89h21.42
	V327.26h-21.42V435.89z M447.524,218.63h21.42V110h-21.42V218.63z M267.75,598.835l65.025,65.025l65.024-65.025l-65.024-65.025
	L267.75,598.835z M358.785,598.835l-26.01,26.01l-26.011-26.01l26.011-26.01L358.785,598.835z M251.685,435.89h195.84V327.26
	h-304.47L251.685,435.89z M34.425,218.63h413.1V110h-413.1V218.63z M358.785,598.835l-26.01,26.01l-26.011-26.01l26.011-26.01
	L358.785,598.835z M468.944,435.89l108.631-108.63V218.63L468.944,110V435.89z"/>
</svg>
