<?xml version="1.0" encoding="iso-8859-1"?>

<!-- Generator: Adobe Illustrator 16.0.0, SVG Export Plug-In . SVG Version: 6.00 Build 0)  -->

<!DOCTYPE svg PUBLIC "-//W3C//DTD SVG 1.1//EN" >

<svg class="uniFB59" viewBox="0 0 800 800">
  
<path d="M398 568h28v-142h-28v142zM284 426v-28h-142v28h142zM398 284h28v-284h-28v284zM271 849l85 85l85 -85l-85 
-85zM390 849l-34 34l-34 -34l34 -34zM186 707l85 85l85 -85l-85 -85zM356 707l85 85l85 -85l-85 -85zM305 707l-34 
34l-34 -34l34 -34zM475 707l-34 34l-34 -34
l34 -34zM398 568v-142h-256l142 142h114zM0 142h284v142h114v-284h-398v142zM390 849l-34 34l-34 -34l34 -34zM305 
707l-34 34l-34 -34l34 -34zM475 707l-34 34l-34 -34l34 -34zM426 568l142 -142v-284l-142 -142v568zM142 284v114h142v-256z" 
fill="green" stroke="black" stroke-linecap="round" stroke-linejoin="round" stroke-width="5"/>
</svg>