<?xml version="1.0" encoding="iso-8859-1"?>

<!-- Generator: Adobe Illustrator 16.0.0, SVG Export Plug-In . SVG Version: 6.00 Build 0)  -->

<!DOCTYPE svg PUBLIC "-//W3C//DTD SVG 1.1//EN" "http://www.w3.org/Graphics/SVG/1.1/DTD/svg11.dtd">

<svg class="uniFE86" viewBox="0 0 800 800">
  
<path d="M210 710h71v-28h-71v28zM327 426h28v-142h-28v142zM71 284h142v-23h-142v23zM327 142h28v-142h-28v142zM327 
-170l28 28v-142h-28v114zM210 682h71v-44h146l-71 -70h-146v114zM213 426h114v-142h-256zM213 142h114v-142h-114v142zM327 
-170v-114h-114zM281 780h146
l-75 -70h-142zM355 426l142 -142v-426l-142 -142v710zM71 142v119h142v-261z"
fill="green" stroke="black" stroke-linecap="round" stroke-linejoin="round" stroke-width="5"/>
</svg>