<?xml version="1.0" encoding="iso-8859-1"?>

<!-- Generator: Adobe Illustrator 16.0.0, SVG Export Plug-In . SVG Version: 6.00 Build 0)  -->

<!DOCTYPE svg PUBLIC "-//W3C//DTD SVG 1.1//EN" "http://www.w3.org/Graphics/SVG/1.1/DTD/svg11.dtd">

<svg class="uniFB6D" viewBox="0 0 800 800">
  
<path d="M398 426h28v-142h-28v142zM142 284h142v-23h-142v23zM398 142h28v-142h-28v142zM270 781l85 85l85 -85l-85 
-85zM389 781l-34 34l-34 -34l34 -34zM185 639l85 85l85 -85l-85 -85zM355 639l85 85l85 -85l-85 -85zM304 639l-34 34l-34 
-34l34 -34zM474 639l-34 34l-34 -34
l34 -34zM284 426h114v-142h-256zM0 142h426v-142h-426v142zM389 781l-34 34l-34 -34l34 -34zM304 639l-34 34l-34 -34l34 
-34zM474 639l-34 34l-34 -34l34 -34zM426 426l142 -142v-284h-142v426zM142 261h142v-119h-142v119z" 
fill="green" stroke="black" stroke-linecap="round" stroke-linejoin="round" stroke-width="5"/>
</svg>