<?xml version="1.0" encoding="utf-8"?>
<!-- Generator: Adobe Illustrator 14.0.0, SVG Export Plug-In . SVG Version: 6.00 Build 43363)  -->
<!DOCTYPE svg PUBLIC "-//W3C//DTD SVG 1.1//EN" >
<svg version="1.1" id="Layer_1" xmlns="http://www.w3.org/2000/svg" xmlns:xlink="http://www.w3.org/1999/xlink" x="0px" y="0px"
	 width="612px" height="792px" viewBox="0 0 612 792" enable-background="new 0 0 612 792" xml:space="preserve">
<path fill="#008000" stroke="#000000" stroke-width="5" stroke-linecap="round" stroke-linejoin="round" d="M354.559,468.451h31.621
	v-148.15h-31.621V468.451z M65.462,320.301h160.358v-23.996H65.462V320.301z M114.021,690.678l95.989,88.683L306,690.678
	l-95.99-88.682L114.021,690.678z M306,690.678l95.988,88.683l95.99-88.683l-95.99-88.682L306,690.678z M248.407,690.678
	l-38.396,35.473l-38.395-35.473l38.395-35.473L248.407,690.678z M440.385,690.678l-38.396,35.473l-38.395-35.473l38.395-35.473
	L440.385,690.678z M225.821,468.451h128.738v-148.15H65.462L225.821,468.451z M248.407,690.678l-38.396,35.473l-38.395-35.473
	l38.395-35.473L248.407,690.678z M440.385,690.678l-38.396,35.473l-38.395-35.473l38.395-35.473L440.385,690.678z M386.18,172.151
	v296.3l160.357-148.15V24L386.18,172.151z M65.462,172.151v124.154h160.358V24L65.462,172.151z"/>
</svg>
