<?xml version="1.0" encoding="utf-8"?>
<!-- Generator: Adobe Illustrator 14.0.0, SVG Export Plug-In . SVG Version: 6.00 Build 43363)  -->
<!DOCTYPE svg PUBLIC "-//W3C//DTD SVG 1.1//EN" >
<svg version="1.1" id="Layer_1" xmlns="http://www.w3.org/2000/svg" xmlns:xlink="http://www.w3.org/1999/xlink" x="0px" y="0px"
	 width="612px" height="792px" viewBox="0 0 612 792" enable-background="new 0 0 612 792" xml:space="preserve">
<path fill="#008000" stroke="#000000" stroke-width="5" stroke-linecap="round" stroke-linejoin="round" d="M351.18,212.123h46.469
	l91.648-87.619l-23.234-22.213L351.18,212.123z M87.852,650.219l109.72,104.896l109.72-104.896l-109.72-104.897L87.852,650.219z
	 M307.291,650.219l109.721,104.896L526.73,650.219L417.012,545.321L307.291,650.219z M241.459,650.219l-43.888,41.958
	l-43.888-41.958l43.888-41.958L241.459,650.219z M460.898,650.219l-43.887,41.958l-43.889-41.958l43.889-41.958L460.898,650.219z
	 M31.055,212.123H351.18l114.883-109.832l-68.414-65.406H31.055V212.123z M241.459,650.219l-43.888,41.958l-43.888-41.958
	l43.888-41.958L241.459,650.219z M460.898,650.219l-43.887,41.958l-43.889-41.958l43.889-41.958L460.898,650.219z M397.648,212.123
	v175.238l183.297,175.238V36.885L397.648,212.123z"/>
</svg>
