<?xml version="1.0" encoding="utf-8"?>
<!-- Generator: Adobe Illustrator 14.0.0, SVG Export Plug-In . SVG Version: 6.00 Build 43363)  -->
<!DOCTYPE svg PUBLIC "-//W3C//DTD SVG 1.1//EN" >
<svg version="1.1" id="Layer_1" xmlns="http://www.w3.org/2000/svg" xmlns:xlink="http://www.w3.org/1999/xlink" x="0px" y="0px"
	 width="612px" height="792px" viewBox="0 0 612 792" enable-background="new 0 0 612 792" xml:space="preserve">
<path fill="#008000" stroke="#000000" stroke-width="5" stroke-linecap="round" stroke-linejoin="round" d="M144.64,260.338h107.573
	v-18.046H144.64V260.338z M359.786,260.338H467.36v-18.046H359.786V260.338z M338.574,148.919h21.212V37.5h-21.212V148.919z
	 M144.64,678.553l53.787,54.925v-54.925l-26.514-28.247v-27.462l-27.272-28.248V678.553z M252.212,371.757H467.36V260.338H144.64
	L252.212,371.757z M144.64,148.919h193.935V37.5H144.64V148.919z M198.426,678.553l27.272,27.463v27.462l26.514,27.463v-82.388
	l-53.786-56.494V678.553z M144.64,371.757v111.42l107.573,111.418V371.757l-53.786-55.709L144.64,371.757z M359.786,483.178
	L467.36,594.596V371.757H359.786V483.178z M144.64,242.292h107.573v-93.373H144.64V242.292z M359.786,242.292H467.36v-93.373
	L359.786,37.5V242.292z"/>
</svg>
