<?xml version="1.0" encoding="utf-8"?>
<!-- Generator: Adobe Illustrator 14.0.0, SVG Export Plug-In . SVG Version: 6.00 Build 43363)  -->
<!DOCTYPE svg PUBLIC "-//W3C//DTD SVG 1.1//EN" "http://www.w3.org/Graphics/SVG/1.1/DTD/svg11.dtd">
<svg version="1.1" id="Layer_1" xmlns="http://www.w3.org/2000/svg" xmlns:xlink="http://www.w3.org/1999/xlink" x="0px" y="0px"
	 width="612px" height="792px" viewBox="0 0 612 792" enable-background="new 0 0 612 792" xml:space="preserve">
<path fill="#008000" stroke="#000000" stroke-width="5" stroke-linecap="round" stroke-linejoin="round" d="M71.315,332.2h152.728
	v-22.368H71.315V332.2z M376.771,332.2H529.5v-22.368H376.771V332.2z M346.656,194.1h30.115V56h-30.115V194.1z M224.043,470.299
	H529.5V332.2H71.315L224.043,470.299z M71.315,194.1h275.341V56H71.315V194.1z M71.315,470.299v138.101L224.043,746.5V470.299
	l-76.364-69.049L71.315,470.299z M376.771,608.399L529.5,746.5V470.299H376.771V608.399z M71.315,309.832h152.728V194.1H71.315
	V309.832z M376.771,309.832H529.5V194.1L376.771,56V309.832z"/>
</svg>
