<?xml version="1.0" encoding="utf-8"?>
<!-- Generator: Adobe Illustrator 14.0.0, SVG Export Plug-In . SVG Version: 6.00 Build 43363)  -->
<!DOCTYPE svg PUBLIC "-//W3C//DTD SVG 1.1//EN" >
<svg version="1.1" id="Layer_1" xmlns="http://www.w3.org/2000/svg" xmlns:xlink="http://www.w3.org/1999/xlink" x="0px" y="0px"
	 width="612px" height="792px" viewBox="0 0 612 792" enable-background="new 0 0 612 792" xml:space="preserve">
<path fill="#008000" stroke="#000000" stroke-width="5" stroke-linecap="round" stroke-linejoin="round" d="M123.055,278.593
	h121.963v-18.513H123.055V278.593z M366.982,278.593h121.963v-18.513H366.982V278.593z M342.932,164.296h24.051V50h-24.051V164.296z
	 M185.755,735.78h59.264l-60.982-57.953h-60.981L185.755,735.78z M245.019,392.89h243.927V278.593h-365.89L245.019,392.89z
	 M123.055,164.296h219.876V50H123.055V164.296z M123.055,677.827h121.963l-60.123-56.344h-61.841V677.827z M123.055,392.89v114.297
	l121.963,114.297V392.89l-60.982-57.148L123.055,392.89z M366.982,507.187l121.963,114.297V392.89H366.982V507.187z
	 M123.055,260.081h121.963v-95.784H123.055V260.081z M366.982,260.081h121.963v-95.784L366.982,50V260.081z"/>
</svg>
