<?xml version="1.0" encoding="utf-8"?>
<!-- Generator: Adobe Illustrator 14.0.0, SVG Export Plug-In . SVG Version: 6.00 Build 43363)  -->
<!DOCTYPE svg PUBLIC "-//W3C//DTD SVG 1.1//EN" "http://www.w3.org/Graphics/SVG/1.1/DTD/svg11.dtd">
<svg version="1.1" id="Layer_1" xmlns="http://www.w3.org/2000/svg" xmlns:xlink="http://www.w3.org/1999/xlink" x="0px" y="0px"
	 width="612px" height="792px" viewBox="0 0 612 792" enable-background="new 0 0 612 792" xml:space="preserve">
<path fill="#008000" stroke="#000000" stroke-width="5" stroke-linecap="round" stroke-linejoin="round" d="M352.247,521.311h23.433
	V401.887h-23.433V521.311z M138,521.311h214.247V401.887H138V521.311z M173.987,222.75l71.137,71.486l71.136-71.486l-71.136-71.486
	L173.987,222.75z M316.26,222.75l71.137,71.486l71.137-71.486l-71.137-71.486L316.26,222.75z M273.578,222.75l-28.455,28.594
	l-28.455-28.594l28.455-28.595L273.578,222.75z M415.851,222.75l-28.454,28.594l-28.455-28.594l28.455-28.595L415.851,222.75z
	 M245.124,103.326l71.136,71.486l71.137-71.486L316.26,31.84L245.124,103.326z M344.714,103.326l-28.454,28.595l-28.454-28.595
	l28.454-28.595L344.714,103.326z M375.68,640.735l118.84,119.424V521.311L375.68,401.887V640.735z M273.578,222.75l-28.455,28.594
	l-28.455-28.594l28.455-28.595L273.578,222.75z M415.851,222.75l-28.454,28.594l-28.455-28.594l28.455-28.595L415.851,222.75z
	 M344.714,103.326l-28.454,28.595l-28.454-28.595l28.454-28.595L344.714,103.326z"/>
</svg>
