<?xml version="1.0" encoding="utf-8"?>
<!-- Generator: Adobe Illustrator 14.0.0, SVG Export Plug-In . SVG Version: 6.00 Build 43363)  -->
<!DOCTYPE svg PUBLIC "-//W3C//DTD SVG 1.1//EN" "http://www.w3.org/Graphics/SVG/1.1/DTD/svg11.dtd">
<svg version="1.1" id="Layer_1" xmlns="http://www.w3.org/2000/svg" xmlns:xlink="http://www.w3.org/1999/xlink" x="0px" y="0px"
	 width="612px" height="792px" viewBox="0 0 612 792" enable-background="new 0 0 612 792" xml:space="preserve">
<path fill="#008000" stroke="#000000" stroke-width="5" stroke-linecap="round" stroke-linejoin="round" d="M143.102,310.126h11.909
	v-83.522h-11.909V310.126z M34.22,226.604h60.396v-13.527H34.22V226.604z M260.49,143.083h15.312L306,101.321l-7.656-10.587
	L260.49,143.083z M384.684,143.083h11.909V59.56h-11.909V143.083z M300.046,704.795l20.415,27.645v-87.05l-20.415-29.409V704.795z
	 M274.951,577.748l22.968,29.998v-29.998l22.968,29.998v-29.998l26.794,29.998v-32.938l-26.794-38.82h-45.936V577.748z
	 M517.385,393.647l60.396,83.521V143.083L517.385,59.56V393.647z M94.616,310.126h48.486v-83.522H34.22L94.616,310.126z
	 M215.407,143.083h45.083l37.854-52.349L275.802,59.56h-60.396V143.083z M336.199,143.083h48.484V59.56h-48.484V143.083z
	 M275.802,143.083v250.565l60.397,83.521V59.56L275.802,143.083z M396.593,393.647l60.396,83.521V143.083L396.593,59.56V393.647z
	 M155.01,143.083v167.043l60.396-83.522V59.56L155.01,143.083z M34.22,143.083v69.994h60.396V59.56L34.22,143.083z"/>
</svg>
