<?xml version="1.0" encoding="iso-8859-1"?>

<!-- Generator: Adobe Illustrator 16.0.0, SVG Export Plug-In . SVG Version: 6.00 Build 0)  -->

<!DOCTYPE svg PUBLIC "-//W3C//DTD SVG 1.1//EN" "http://www.w3.org/Graphics/SVG/1.1/DTD/svg11.dtd">

<svg class="uniFE9E" viewBox="0 0 800 800">
<path d="M469 426h28v-142h-28v142zM461 142h36l71 -71l-18 -18zM213 426h256v-142h-398zM213 142h248l89 -89l-53 -53h-284v142zM412 -213l85 85l85 -85l-85 -85zM213 -142l142 -142h-142v142zM531 -213l-34 34l-34 -34l34 -34zM497 142v284l142 -142v-284zM71 -142v142l142 142
v-426zM531 -213l-34 34l-34 -34l34 -34z"
fill="green" stroke="black" stroke-linecap="round" stroke-linejoin="round" stroke-width="5"/>
</svg>