<?xml version="1.0" encoding="utf-8"?>
<!-- Generator: Adobe Illustrator 14.0.0, SVG Export Plug-In . SVG Version: 6.00 Build 43363)  -->
<!DOCTYPE svg PUBLIC "-//W3C//DTD SVG 1.1//EN" >
<svg version="1.1" id="Layer_1" xmlns="http://www.w3.org/2000/svg" xmlns:xlink="http://www.w3.org/1999/xlink" x="0px" y="0px"
	 width="612px" height="792px" viewBox="0 0 612 792" enable-background="new 0 0 612 792" xml:space="preserve">
<path fill="#008000" stroke="#000000" stroke-width="5" stroke-linecap="round" stroke-linejoin="round" d="M447.524,444.959h21.42
	V336.33h-21.42V444.959z M441.405,227.7h27.539l54.315-54.315l-13.77-13.77L441.405,227.7z M267.75,607.904l65.025,65.025
	l65.024-65.025l-65.024-65.025L267.75,607.904z M358.785,607.904l-26.01,26.01l-26.011-26.01l26.011-26.01L358.785,607.904z
	 M251.685,444.959h195.84V336.33h-304.47L251.685,444.959z M34.425,227.7h406.98l68.085-68.085l-40.546-40.545H34.425V227.7z
	 M358.785,607.904l-26.01,26.01l-26.011-26.01l26.011-26.01L358.785,607.904z M468.944,227.7v217.259L577.575,336.33V119.07
	L468.944,227.7z"/>
</svg>
