<?xml version="1.0" encoding="iso-8859-1"?>

<!-- Generator: Adobe Illustrator 16.0.0, SVG Export Plug-In . SVG Version: 6.00 Build 0)  -->

<!DOCTYPE svg PUBLIC "-//W3C//DTD SVG 1.1//EN" >

<svg class="uniFE9C" viewBox="0 0 800 800">
<path d="M248 142h36l71 -71l-18 -18zM129 639l85 85l85 -85l-85 -85zM248 639l-34 34l-34 -34l34 -34zM44 497l85 85l85 -85l-85 -85zM214 497l85 85l85 -85l-85 -85zM163 497l-34 34l-34 -34l34 -34zM333 497l-34 34l-34 -34l34 -34zM0 142h248l89 -89l-53 -53h-284v142z
M248 639l-34 34l-34 -34l34 -34zM163 497l-34 34l-34 -34l34 -34zM333 497l-34 34l-34 -34l34 -34zM284 142v142l142 142v-426z" 
fill="green" stroke="black" stroke-linecap="round" stroke-linejoin="round" stroke-width="5"/>
</svg>