<?xml version="1.0" encoding="utf-8"?>
<!-- Generator: Adobe Illustrator 14.0.0, SVG Export Plug-In . SVG Version: 6.00 Build 43363)  -->
<!DOCTYPE svg PUBLIC "-//W3C//DTD SVG 1.1//EN" >
<svg version="1.1" id="Layer_1" xmlns="http://www.w3.org/2000/svg" xmlns:xlink="http://www.w3.org/1999/xlink" x="0px" y="0px"
	 width="612px" height="792px" viewBox="0 0 612 792" enable-background="new 0 0 612 792" xml:space="preserve">
<path fill="#008000" stroke="#000000" stroke-width="5" stroke-linecap="round" stroke-linejoin="round" d="M447.524,665.93h21.42
	V557.3h-21.42V665.93z M441.405,448.67h27.539l54.315-54.315l-13.77-13.77L441.405,448.67z M251.685,665.93h195.84V557.3h-304.47
	L251.685,665.93z M34.425,448.67h406.98l68.085-68.085l-40.546-40.545H34.425V448.67z M268.515,177.095l65.025,65.025l65.024-65.025
	L333.54,112.07L268.515,177.095z M359.55,177.095l-26.01,26.01l-26.011-26.01l26.011-26.01L359.55,177.095z M468.944,448.67v217.26
	L577.575,557.3V340.04L468.944,448.67z M359.55,177.095l-26.01,26.01l-26.011-26.01l26.011-26.01L359.55,177.095z"/>
</svg>
