<?xml version="1.0" encoding="utf-8"?>
<!-- Generator: Adobe Illustrator 14.0.0, SVG Export Plug-In . SVG Version: 6.00 Build 43363)  -->
<!DOCTYPE svg PUBLIC "-//W3C//DTD SVG 1.1//EN" >
<svg version="1.1" id="Layer_1" xmlns="http://www.w3.org/2000/svg" xmlns:xlink="http://www.w3.org/1999/xlink" x="0px" y="0px"
	 width="612px" height="792px" viewBox="0 0 612 792" enable-background="new 0 0 612 792" xml:space="preserve">
<path fill="#008000" stroke="#000000" stroke-width="5" stroke-linecap="round" stroke-linejoin="round" d="M469.351,256.736h23.711
	l46.767-49.618l-11.856-12.58L469.351,256.736z M240.792,504.828l55.987,59.402l55.987-59.402l-55.987-59.402L240.792,504.828z
	 M352.766,504.828l55.986,59.402l55.988-59.402l-55.988-59.402L352.766,504.828z M319.174,504.828l-22.395,23.761l-22.394-23.761
	l22.394-23.761L319.174,504.828z M431.147,504.828l-22.396,23.761l-22.394-23.761l22.394-23.761L431.147,504.828z M118.938,256.736
	h350.412l58.621-62.197l-34.91-37.039H118.938V256.736z M319.174,504.828l-22.395,23.761l-22.394-23.761l22.394-23.761
	L319.174,504.828z M431.147,504.828l-22.396,23.761l-22.394-23.761l22.394-23.761L431.147,504.828z M493.062,256.736v99.236
	l93.531,99.237V157.5L493.062,256.736z M25.408,256.736l93.531,99.236V157.5L25.408,256.736z"/>
</svg>
