<?xml version="1.0" encoding="utf-8"?>
<!-- Generator: Adobe Illustrator 14.0.0, SVG Export Plug-In . SVG Version: 6.00 Build 43363)  -->
<!DOCTYPE svg PUBLIC "-//W3C//DTD SVG 1.1//EN" "http://www.w3.org/Graphics/SVG/1.1/DTD/svg11.dtd">
<svg version="1.1" id="Layer_1" xmlns="http://www.w3.org/2000/svg" xmlns:xlink="http://www.w3.org/1999/xlink" x="0px" y="0px"
	 width="612px" height="792px" viewBox="0 0 612 792" enable-background="new 0 0 612 792" xml:space="preserve">
<path fill="#008000" stroke="#000000" stroke-width="5" stroke-linecap="round" stroke-linejoin="round" d="M357.51,416.83h17.494
	l34.504-38.015l-8.748-9.638L357.51,416.83z M495.52,416.83h17.494l34.504-38.015l-8.748-9.638L495.52,416.83z M223.388,264.77
	h13.606v-76.03h-13.606V264.77z M306,416.83h51.51l43.25-47.653L375.004,340.8H306V416.83z M444.01,416.83h51.51l43.25-47.653
	L513.014,340.8H444.01V416.83z M98.985,264.77h124.403v-76.03H98.985V264.77z M236.995,492.859L306,568.89V264.77l-69.005-76.03
	V492.859z M375.004,416.83v76.029l69.006,76.03V340.8L375.004,416.83z M513.014,416.83v76.029l69.006,76.03V340.8L513.014,416.83z
	 M29.98,264.77v76.03l69.005,76.03V188.74L29.98,264.77z"/>
</svg>
