<?xml version="1.0" encoding="iso-8859-1"?>

<!-- Generator: Adobe Illustrator 16.0.0, SVG Export Plug-In . SVG Version: 6.00 Build 0)  -->

<!DOCTYPE svg PUBLIC "-//W3C//DTD SVG 1.1//EN" >

<svg class="uniFE8A" viewBox="0 0 800 800">
<path d="M340 426h71v-28h-71v28zM1136 426v-142h-28v142h28zM852 284h142v-23h-142v23zM824 142h28v-142h-28v142zM994 426h114v-142h-256zM340 398h71v-44h146l-71 -70h-146v114zM0 142h824v-142h-682zM411 496h146l-75 -70h-142zM1136 142v284l142 -142v-284zM852 261h142v-119
l-142 -142v261z"
fill="green" stroke="black" stroke-linecap="round" stroke-linejoin="round" stroke-width="5"/>
</svg>