<?xml version="1.0" encoding="utf-8"?>
<!-- Generator: Adobe Illustrator 14.0.0, SVG Export Plug-In . SVG Version: 6.00 Build 43363)  -->
<!DOCTYPE svg PUBLIC "-//W3C//DTD SVG 1.1//EN" "http://www.w3.org/Graphics/SVG/1.1/DTD/svg11.dtd">
<svg version="1.1" id="Layer_1" xmlns="http://www.w3.org/2000/svg" xmlns:xlink="http://www.w3.org/1999/xlink" x="0px" y="0px"
	 width="612px" height="792px" viewBox="0 0 612 792" enable-background="new 0 0 612 792" xml:space="preserve">
<path fill="#008000" stroke="#000000" stroke-width="5" stroke-linecap="round" stroke-linejoin="round" d="M335.947,510.841h30.803
	l60.75-57.415l-15.4-14.556L335.947,510.841z M123.75,510.841h212.197L412.1,438.87l-45.35-42.859h-243V510.841z M160.542,223.766
	l72.729,68.736L306,223.766l-72.729-68.736L160.542,223.766z M306,223.766l72.729,68.736l72.729-68.736l-72.729-68.736L306,223.766z
	 M262.363,223.766l-29.092,27.494l-29.091-27.494l29.091-27.495L262.363,223.766z M407.82,223.766l-29.091,27.494l-29.093-27.494
	l29.093-27.495L407.82,223.766z M233.271,108.936L306,177.672l72.729-68.736L306,40.2L233.271,108.936z M335.091,108.936
	L306,136.431l-29.091-27.495L306,81.441L335.091,108.936z M366.75,510.841v114.83L488.25,740.5V396.011L366.75,510.841z
	 M262.363,223.766l-29.092,27.494l-29.091-27.494l29.091-27.495L262.363,223.766z M407.82,223.766l-29.091,27.494l-29.093-27.494
	l29.093-27.495L407.82,223.766z M335.091,108.936L306,136.431l-29.091-27.495L306,81.441L335.091,108.936z"/>
</svg>
